<svg width="260" height="122" viewBox="0 0 260 122" fill="none" xmlns="http://www.w3.org/2000/svg">
<path d="M258 119.455C258 87.9166 244.409 57.6697 220.217 35.3685C196.025 13.0674 163.213 0.538699 129 0.538696C94.7871 0.538694 61.9754 13.0674 37.7832 35.3685C13.591 57.6697 5.34103e-06 87.9166 1.75026e-07 119.455H32.25C32.25 95.8012 42.4433 73.1161 60.5874 56.3902C78.7316 39.6643 103.34 30.2678 129 30.2678C154.66 30.2678 179.268 39.6643 197.413 56.3902C215.557 73.1161 225.75 95.8012 225.75 119.455H258Z" fill="#EA580C"/>
<path d="M66.5229 15.4161C46.3096 25.731 29.4724 40.8609 17.7705 59.2248C6.06861 77.5888 -0.0684474 98.5127 0.000575861 119.81L32.2504 119.722C32.1987 103.748 36.8015 88.0554 45.5779 74.2824C54.3543 60.5095 66.9822 49.1621 82.1422 41.4259L66.5229 15.4161Z" fill="#FED7AA"/>
<path d="M193.5 16.4705C173.938 6.0594 151.754 0.565663 129.166 0.538795C106.579 0.511928 84.3792 5.95287 64.7885 16.3174L80.8414 42.1018C95.5344 34.3284 112.184 30.2477 129.125 30.2679C146.066 30.288 162.704 34.4083 177.375 42.2167L193.5 16.4705Z" fill="#FB923C"/>
<path d="M37.4788 63.5489L134.701 108.273L128.107 118.802L37.4788 63.5489Z" fill="white"/>
<path d="M132.919 106.715C136.346 108.54 137.521 112.58 135.542 115.74C133.563 118.9 129.18 119.982 125.752 118.158C122.324 116.334 121.15 112.293 123.129 109.134C125.108 105.974 129.491 104.891 132.919 106.715Z" fill="white"/>
</svg>
