<svg width="546" height="404" viewBox="0 0 546 404" fill="none" xmlns="http://www.w3.org/2000/svg">
<path d="M402.439 100.39L545.862 134.639L430.457 42.2921H430.43L286.753 0L402.439 100.39Z" fill="url(#paint0_linear_1119_1736)"/>
<path d="M535.318 196.364C535.318 194.49 534.128 192.897 532.455 192.322V136.646L529.592 135.964V192.322C527.919 192.897 526.728 194.49 526.728 196.364C526.728 197.822 527.464 199.134 528.575 199.897L524.949 203.524H537.085L533.458 199.897C534.582 199.121 535.305 197.822 535.305 196.364H535.318ZM530.675 197.796L531.023 197.448L531.371 197.796H530.689H530.675Z" fill="url(#paint1_linear_1119_1736)"/>
<path d="M400.017 104.914L324.78 39.6957L302.528 95.3713C369.711 88.8535 427.741 124.32 452.106 175.445C457.07 185.871 456.602 182.726 458.569 194.222L488.889 126.22L400.03 104.927L400.017 104.914Z" fill="url(#paint2_linear_1119_1736)"/>
<path d="M295.383 338.604C279.634 335.258 265.706 327.523 253.61 315.424C249.944 311.757 246.679 307.916 243.815 303.927C241.487 300.662 239.427 297.303 237.634 293.809C233.285 312.359 225.471 326.465 214.272 335.928L214.138 336.048C210.472 339.273 206.03 341.816 200.932 343.623C198.751 344.399 196.596 345.069 194.469 345.604C196.369 348.053 198.363 350.475 200.437 352.831C202.858 355.601 205.401 358.318 208.063 360.982C220.199 373.12 233.392 382.757 247.629 389.877C250.76 391.456 253.944 392.901 257.196 394.213C262.869 390.693 268.261 386.611 273.373 382.021C284.264 371.996 293.336 360.473 300.307 347.732C301.685 345.229 302.983 342.659 304.214 340.01C301.204 339.688 298.26 339.233 295.37 338.604H295.383Z" fill="url(#paint3_linear_1119_1736)"/>
<path d="M202.002 367.031C213.134 378.166 225.177 387.334 238.062 394.467C229.378 398.134 220.106 400.757 210.271 402.337C199.272 404.117 186.882 405 173.074 405H93.7288C82.6633 405 74.314 403.34 68.721 399.995C63.1147 396.649 59.4619 391.924 57.7492 385.848C56.0365 379.759 55.1802 371.876 55.1802 362.159V258.878H116.074V356.618H162.196C172.298 356.618 180.232 356.351 185.972 355.802C187.658 355.641 189.371 355.414 191.084 355.106C194.482 359.188 198.108 363.163 201.975 367.031H202.002Z" fill="url(#paint4_linear_1119_1736)"/>
<path d="M202.002 367.031C213.134 378.166 225.177 387.334 238.062 394.467C229.378 398.134 220.106 400.757 210.271 402.337C199.272 404.117 186.882 405 173.074 405H93.7288C82.6633 405 74.314 403.34 68.721 399.995C63.1147 396.649 59.4619 391.924 57.7492 385.848C56.0365 379.759 55.1802 371.876 55.1802 362.159V258.878H116.074V356.618H162.196C172.298 356.618 180.232 356.351 185.972 355.802C187.658 355.641 189.371 355.414 191.084 355.106C194.482 359.188 198.108 363.163 201.975 367.031H202.002Z" fill="url(#paint5_linear_1119_1736)"/>
<path d="M295.383 338.604C294.554 340.304 293.697 341.963 292.787 343.596C286.231 355.548 277.828 366.255 267.579 375.69C261.384 381.258 254.734 385.982 247.656 389.85C233.406 382.73 220.226 373.094 208.09 360.955C205.427 358.291 202.885 355.575 200.463 352.804C201.574 352.456 202.698 352.095 203.822 351.693C209.977 349.512 215.302 346.434 219.811 342.472C230.77 333.224 238.771 320.362 243.815 303.927C246.679 307.929 249.944 311.757 253.61 315.424C265.706 327.523 279.634 335.258 295.383 338.604Z" fill="url(#paint6_linear_1119_1736)"/>
<path d="M295.383 338.604C294.554 340.304 293.697 341.963 292.787 343.596C286.231 355.548 277.828 366.255 267.579 375.69C261.384 381.258 254.734 385.982 247.656 389.85C233.406 382.73 220.226 373.094 208.09 360.955C205.427 358.291 202.885 355.575 200.463 352.804C201.574 352.456 202.698 352.095 203.822 351.693C209.977 349.512 215.302 346.434 219.811 342.472C230.77 333.224 238.771 320.362 243.815 303.927C246.679 307.929 249.944 311.757 253.61 315.424C265.706 327.523 279.634 335.258 295.383 338.604Z" fill="url(#paint7_linear_1119_1736)"/>
<path d="M312.068 253.886C312.068 271.927 310.489 288.416 307.358 303.298C305.298 313.028 302.515 322.129 299.009 330.587C284.09 327.804 271.138 320.777 259.684 309.334C254.439 304.088 250.131 298.52 246.732 292.592C249.154 281.041 250.372 267.993 250.372 253.458C250.372 238.923 249.341 226.611 247.254 215.783C246.478 211.755 245.568 207.967 244.511 204.407C242.504 197.689 239.989 191.84 236.951 186.821C228 172.059 216.961 162.664 203.835 158.622C202.457 158.194 201.039 157.806 199.607 157.418C196.583 156.628 193.439 155.945 190.147 155.356C188.421 155.035 186.655 154.754 184.849 154.5C184.942 144.502 185.384 137.034 184.942 127.693C184.594 119.729 184.942 110.883 184.969 104.686C200.075 105.342 213.415 107.149 224.936 110.133C229.512 111.325 233.968 112.837 238.289 114.657C241.514 116.049 244.672 117.588 247.749 119.341C253.837 122.754 259.618 126.849 265.117 131.668C277.681 142.428 287.716 155.423 295.236 170.681C296.52 173.29 297.725 175.954 298.862 178.684C307.666 199.83 312.068 224.897 312.068 253.873V253.886Z" fill="url(#paint8_linear_1119_1736)"/>
<path d="M312.068 253.886C312.068 271.927 310.489 288.416 307.358 303.298C305.298 313.028 302.515 322.129 299.009 330.587C284.09 327.804 271.138 320.777 259.684 309.334C254.439 304.088 250.131 298.52 246.732 292.592C249.154 281.041 250.372 267.993 250.372 253.458C250.372 238.923 249.341 226.611 247.254 215.783C246.478 211.755 245.568 207.967 244.511 204.407C242.504 197.689 239.989 191.84 236.951 186.821C228 172.059 216.961 162.664 203.835 158.622C202.457 158.194 201.039 157.806 199.607 157.418C196.583 156.628 193.439 155.945 190.147 155.356C188.421 155.035 186.655 154.754 184.849 154.5C184.942 144.502 185.384 137.034 184.942 127.693C184.594 119.729 184.942 110.883 184.969 104.686C200.075 105.342 213.415 107.149 224.936 110.133C229.512 111.325 233.968 112.837 238.289 114.657C241.514 116.049 244.672 117.588 247.749 119.341C253.837 122.754 259.618 126.849 265.117 131.668C277.681 142.428 287.716 155.423 295.236 170.681C296.52 173.29 297.725 175.954 298.862 178.684C307.666 199.83 312.068 224.897 312.068 253.873V253.886Z" fill="url(#paint9_linear_1119_1736)"/>
<path d="M163.641 73.8907H100.874V127.706H163.641V73.8907Z" fill="url(#paint10_linear_1119_1736)"/>
<path d="M143.463 174.789H80.6965V228.605H143.463V174.789Z" fill="url(#paint11_linear_1119_1736)"/>
<path d="M143.463 174.789H80.6965V228.605H143.463V174.789Z" fill="url(#paint12_linear_1119_1736)"/>
<path d="M54.926 205.063H23.5359V231.964H54.926V205.063Z" fill="url(#paint13_linear_1119_1736)"/>
<path d="M54.926 205.063H23.5359V231.964H54.926V205.063Z" fill="url(#paint14_linear_1119_1736)"/>
<path d="M41.4788 80.6227H10.0886V107.524H41.4788V80.6227Z" fill="url(#paint15_linear_1119_1736)"/>
<path d="M41.4788 80.6227H10.0886V107.524H41.4788V80.6227Z" fill="url(#paint16_linear_1119_1736)"/>
<path d="M42.5894 151.248H26.8943V164.698H42.5894V151.248Z" fill="url(#paint17_linear_1119_1736)"/>
<path d="M42.5894 151.248H26.8943V164.698H42.5894V151.248Z" fill="url(#paint18_linear_1119_1736)"/>
<path d="M15.6951 131.065H0V144.516H15.6951V131.065Z" fill="url(#paint19_linear_1119_1736)"/>
<path d="M15.6951 131.065H0V144.516H15.6951V131.065Z" fill="url(#paint20_linear_1119_1736)"/>
<path d="M69.4971 46.9897H53.802V60.4402H69.4971V46.9897Z" fill="url(#paint21_linear_1119_1736)"/>
<path d="M69.4971 46.9897H53.802V60.4402H69.4971V46.9897Z" fill="url(#paint22_linear_1119_1736)"/>
<path d="M72.2937 107.524H60.519V117.615H72.2937V107.524Z" fill="url(#paint23_linear_1119_1736)"/>
<path d="M72.2937 107.524H60.519V117.615H72.2937V107.524Z" fill="url(#paint24_linear_1119_1736)"/>
<path d="M399.642 265.369C397.501 284.561 389.339 301.237 375.156 315.424C358.404 332.18 338.147 340.558 314.383 340.558C310.918 340.558 307.546 340.384 304.227 340.009C301.217 339.688 298.273 339.233 295.383 338.604C279.635 335.258 265.706 327.523 253.61 315.424C249.944 311.757 246.679 307.916 243.816 303.927C241.487 300.662 239.427 297.302 237.634 293.809C231.532 282.018 228.482 268.983 228.482 254.649C228.482 240.315 231.72 226.477 238.182 214.418C236.162 205.143 233.299 197.421 229.579 191.305C221.685 178.282 212.425 170.292 201.293 166.866C198.885 166.117 196.316 165.448 193.599 164.845C173.904 190.689 164.056 220.628 164.056 254.649C164.056 288.67 174.198 319.492 194.482 345.59C196.382 348.04 198.376 350.462 200.45 352.817C202.872 355.588 205.414 358.305 208.077 360.968C220.213 373.107 233.406 382.743 247.642 389.863C250.773 391.442 253.958 392.888 257.209 394.199C274.764 401.4 293.831 405 314.37 405C355.889 405 391.32 390.318 420.676 360.968C447.45 334.188 461.981 302.321 464.269 265.383H399.629L399.642 265.369ZM265.13 131.681C259.631 126.849 253.851 122.754 247.763 119.355C233.486 126.475 220.266 136.138 208.09 148.303C205.106 151.288 202.283 154.326 199.607 157.444C201.039 157.832 202.457 158.221 203.835 158.649C216.961 162.691 228 172.086 236.951 186.848C239.989 191.853 242.504 197.715 244.511 204.434C247.201 200.753 250.251 197.234 253.637 193.848C265.692 181.789 279.581 174.053 295.263 170.694C287.743 155.437 277.708 142.441 265.144 131.681H265.13ZM420.689 148.303C391.347 118.953 355.902 104.271 314.383 104.271C293.858 104.271 274.804 107.872 257.249 115.059C261.932 118.043 266.455 121.429 270.777 125.217C284.813 137.235 295.918 151.957 304.04 169.275C307.399 168.901 310.864 168.713 314.397 168.713C338.16 168.713 358.418 177.091 375.17 193.848C389.339 208.021 397.501 224.71 399.656 243.902H464.296C462.008 206.95 447.477 175.097 420.703 148.317L420.689 148.303Z" fill="url(#paint25_linear_1119_1736)"/>
<path d="M420.689 148.303C391.347 118.953 355.902 104.271 314.383 104.271C293.858 104.271 274.804 107.872 257.249 115.059C261.932 118.043 266.455 121.429 270.777 125.217C284.813 137.235 295.918 151.957 304.04 169.275C307.399 168.901 310.864 168.713 314.397 168.713C338.16 168.713 358.418 177.091 375.17 193.848C389.339 208.021 397.501 224.71 399.656 243.902H464.296C462.008 206.95 447.477 175.097 420.703 148.317L420.689 148.303ZM265.13 131.681C259.631 126.849 253.851 122.754 247.763 119.355C233.486 126.475 220.266 136.138 208.09 148.303C205.106 151.288 202.283 154.326 199.607 157.444C201.039 157.832 202.457 158.221 203.835 158.649C216.961 162.691 228 172.086 236.951 186.848C239.989 191.853 242.504 197.715 244.511 204.434C247.201 200.753 250.251 197.234 253.637 193.848C265.692 181.789 279.581 174.053 295.263 170.694C287.743 155.437 277.708 142.441 265.144 131.681H265.13ZM399.642 265.369C397.501 284.561 389.339 301.237 375.156 315.424C358.404 332.18 338.147 340.558 314.383 340.558C310.918 340.558 307.546 340.384 304.227 340.009C301.217 339.688 298.273 339.233 295.383 338.604C279.635 335.258 265.706 327.523 253.61 315.424C249.944 311.757 246.679 307.916 243.816 303.927C241.487 300.662 239.427 297.302 237.634 293.809C231.532 282.018 228.482 268.983 228.482 254.649C228.482 240.315 231.72 226.477 238.182 214.418C236.162 205.143 233.299 197.421 229.579 191.305C221.685 178.282 212.425 170.292 201.293 166.866C198.885 166.117 196.316 165.448 193.599 164.845C173.904 190.689 164.056 220.628 164.056 254.649C164.056 288.67 174.198 319.492 194.482 345.59C196.382 348.04 198.376 350.462 200.45 352.817C202.872 355.588 205.414 358.305 208.077 360.968C220.213 373.107 233.406 382.743 247.642 389.863C250.773 391.442 253.958 392.888 257.209 394.199C274.764 401.4 293.831 405 314.37 405C355.889 405 391.32 390.318 420.676 360.968C447.45 334.188 461.981 302.321 464.269 265.383H399.629L399.642 265.369Z" fill="url(#paint26_linear_1119_1736)"/>
<defs>
<linearGradient id="paint0_linear_1119_1736" x1="385.178" y1="98.4495" x2="447.438" y2="36.2044" gradientUnits="userSpaceOnUse">
<stop/>
<stop offset="0.48" stop-color="#06395F"/>
<stop offset="0.83" stop-color="#0B61A0"/>
<stop offset="1" stop-color="#0D71BA"/>
</linearGradient>
<linearGradient id="paint1_linear_1119_1736" x1="512.264" y1="190.836" x2="549.444" y2="153.652" gradientUnits="userSpaceOnUse">
<stop/>
<stop offset="0.48" stop-color="#06395F"/>
<stop offset="0.83" stop-color="#0B61A0"/>
<stop offset="1" stop-color="#0D71BA"/>
</linearGradient>
<linearGradient id="paint2_linear_1119_1736" x1="357.896" y1="150.739" x2="435.668" y2="72.9863" gradientUnits="userSpaceOnUse">
<stop/>
<stop offset="0.48" stop-color="#06395F"/>
<stop offset="0.83" stop-color="#0B61A0"/>
<stop offset="1" stop-color="#0D71BA"/>
</linearGradient>
<linearGradient id="paint3_linear_1119_1736" x1="220.32" y1="373.187" x2="278.873" y2="314.649" gradientUnits="userSpaceOnUse">
<stop/>
<stop offset="0.48" stop-color="#06395F"/>
<stop offset="0.83" stop-color="#0B61A0"/>
<stop offset="1" stop-color="#0D71BA"/>
</linearGradient>
<linearGradient id="paint4_linear_1119_1736" x1="70.4471" y1="402.872" x2="165.27" y2="308.073" gradientUnits="userSpaceOnUse">
<stop/>
<stop offset="0.48" stop-color="#06395F"/>
<stop offset="0.83" stop-color="#0B61A0"/>
<stop offset="1" stop-color="#0D71BA"/>
</linearGradient>
<linearGradient id="paint5_linear_1119_1736" x1="70.4471" y1="402.872" x2="165.27" y2="308.073" gradientUnits="userSpaceOnUse">
<stop/>
<stop offset="0.48" stop-color="#06395F"/>
<stop offset="0.83" stop-color="#0B61A0"/>
<stop offset="1" stop-color="#0D71BA"/>
</linearGradient>
<linearGradient id="paint6_linear_1119_1736" x1="221.363" y1="374.231" x2="276.196" y2="319.412" gradientUnits="userSpaceOnUse">
<stop/>
<stop offset="0.48" stop-color="#06395F"/>
<stop offset="0.83" stop-color="#0B61A0"/>
<stop offset="1" stop-color="#0D71BA"/>
</linearGradient>
<linearGradient id="paint7_linear_1119_1736" x1="221.363" y1="374.231" x2="276.196" y2="319.412" gradientUnits="userSpaceOnUse">
<stop/>
<stop offset="0.48" stop-color="#06395F"/>
<stop offset="0.83" stop-color="#0B61A0"/>
<stop offset="1" stop-color="#0D71BA"/>
</linearGradient>
<linearGradient id="paint8_linear_1119_1736" x1="204.999" y1="254.649" x2="296.811" y2="162.86" gradientUnits="userSpaceOnUse">
<stop/>
<stop offset="0.48" stop-color="#06395F"/>
<stop offset="0.83" stop-color="#0B61A0"/>
<stop offset="1" stop-color="#0D71BA"/>
</linearGradient>
<linearGradient id="paint9_linear_1119_1736" x1="204.999" y1="254.649" x2="296.811" y2="162.86" gradientUnits="userSpaceOnUse">
<stop/>
<stop offset="0.48" stop-color="#06395F"/>
<stop offset="0.83" stop-color="#0B61A0"/>
<stop offset="1" stop-color="#0D71BA"/>
</linearGradient>
<linearGradient id="paint10_linear_1119_1736" x1="103.122" y1="129.954" x2="161.421" y2="71.67" gradientUnits="userSpaceOnUse">
<stop/>
<stop offset="0.48" stop-color="#06395F"/>
<stop offset="0.83" stop-color="#0B61A0"/>
<stop offset="1" stop-color="#0D71BA"/>
</linearGradient>
<linearGradient id="paint11_linear_1119_1736" x1="82.9444" y1="230.853" x2="141.243" y2="172.569" gradientUnits="userSpaceOnUse">
<stop/>
<stop offset="0.48" stop-color="#06395F"/>
<stop offset="0.83" stop-color="#0B61A0"/>
<stop offset="1" stop-color="#0D71BA"/>
</linearGradient>
<linearGradient id="paint12_linear_1119_1736" x1="82.9444" y1="230.853" x2="141.243" y2="172.569" gradientUnits="userSpaceOnUse">
<stop/>
<stop offset="0.48" stop-color="#06395F"/>
<stop offset="0.83" stop-color="#0B61A0"/>
<stop offset="1" stop-color="#0D71BA"/>
</linearGradient>
<linearGradient id="paint13_linear_1119_1736" x1="24.6598" y1="233.088" x2="53.8092" y2="203.946" gradientUnits="userSpaceOnUse">
<stop/>
<stop offset="0.48" stop-color="#06395F"/>
<stop offset="0.83" stop-color="#0B61A0"/>
<stop offset="1" stop-color="#0D71BA"/>
</linearGradient>
<linearGradient id="paint14_linear_1119_1736" x1="24.6598" y1="233.088" x2="53.8092" y2="203.946" gradientUnits="userSpaceOnUse">
<stop/>
<stop offset="0.48" stop-color="#06395F"/>
<stop offset="0.83" stop-color="#0B61A0"/>
<stop offset="1" stop-color="#0D71BA"/>
</linearGradient>
<linearGradient id="paint15_linear_1119_1736" x1="11.2126" y1="108.648" x2="40.362" y2="79.5056" gradientUnits="userSpaceOnUse">
<stop/>
<stop offset="0.48" stop-color="#06395F"/>
<stop offset="0.83" stop-color="#0B61A0"/>
<stop offset="1" stop-color="#0D71BA"/>
</linearGradient>
<linearGradient id="paint16_linear_1119_1736" x1="11.2126" y1="108.648" x2="40.362" y2="79.5056" gradientUnits="userSpaceOnUse">
<stop/>
<stop offset="0.48" stop-color="#06395F"/>
<stop offset="0.83" stop-color="#0B61A0"/>
<stop offset="1" stop-color="#0D71BA"/>
</linearGradient>
<linearGradient id="paint17_linear_1119_1736" x1="27.4563" y1="165.26" x2="42.031" y2="150.689" gradientUnits="userSpaceOnUse">
<stop/>
<stop offset="0.48" stop-color="#06395F"/>
<stop offset="0.83" stop-color="#0B61A0"/>
<stop offset="1" stop-color="#0D71BA"/>
</linearGradient>
<linearGradient id="paint18_linear_1119_1736" x1="27.4563" y1="165.26" x2="42.031" y2="150.689" gradientUnits="userSpaceOnUse">
<stop/>
<stop offset="0.48" stop-color="#06395F"/>
<stop offset="0.83" stop-color="#0B61A0"/>
<stop offset="1" stop-color="#0D71BA"/>
</linearGradient>
<linearGradient id="paint19_linear_1119_1736" x1="0.561972" y1="145.091" x2="15.1367" y2="130.52" gradientUnits="userSpaceOnUse">
<stop/>
<stop offset="0.48" stop-color="#06395F"/>
<stop offset="0.83" stop-color="#0B61A0"/>
<stop offset="1" stop-color="#0D71BA"/>
</linearGradient>
<linearGradient id="paint20_linear_1119_1736" x1="0.561972" y1="145.091" x2="15.1367" y2="130.52" gradientUnits="userSpaceOnUse">
<stop/>
<stop offset="0.48" stop-color="#06395F"/>
<stop offset="0.83" stop-color="#0B61A0"/>
<stop offset="1" stop-color="#0D71BA"/>
</linearGradient>
<linearGradient id="paint21_linear_1119_1736" x1="54.364" y1="61.0023" x2="68.9387" y2="46.4312" gradientUnits="userSpaceOnUse">
<stop/>
<stop offset="0.48" stop-color="#06395F"/>
<stop offset="0.83" stop-color="#0B61A0"/>
<stop offset="1" stop-color="#0D71BA"/>
</linearGradient>
<linearGradient id="paint22_linear_1119_1736" x1="54.364" y1="61.0023" x2="68.9387" y2="46.4312" gradientUnits="userSpaceOnUse">
<stop/>
<stop offset="0.48" stop-color="#06395F"/>
<stop offset="0.83" stop-color="#0B61A0"/>
<stop offset="1" stop-color="#0D71BA"/>
</linearGradient>
<linearGradient id="paint23_linear_1119_1736" x1="60.9472" y1="118.043" x2="71.8816" y2="107.111" gradientUnits="userSpaceOnUse">
<stop/>
<stop offset="0.48" stop-color="#06395F"/>
<stop offset="0.83" stop-color="#0B61A0"/>
<stop offset="1" stop-color="#0D71BA"/>
</linearGradient>
<linearGradient id="paint24_linear_1119_1736" x1="60.9472" y1="118.043" x2="71.8816" y2="107.111" gradientUnits="userSpaceOnUse">
<stop/>
<stop offset="0.48" stop-color="#06395F"/>
<stop offset="0.83" stop-color="#0B61A0"/>
<stop offset="1" stop-color="#0D71BA"/>
</linearGradient>
<linearGradient id="paint25_linear_1119_1736" x1="208.077" y1="360.955" x2="420.742" y2="148.355" gradientUnits="userSpaceOnUse">
<stop/>
<stop offset="0.48" stop-color="#06395F"/>
<stop offset="0.83" stop-color="#0B61A0"/>
<stop offset="1" stop-color="#0D71BA"/>
</linearGradient>
<linearGradient id="paint26_linear_1119_1736" x1="208.077" y1="360.955" x2="420.742" y2="148.355" gradientUnits="userSpaceOnUse">
<stop/>
<stop offset="0.48" stop-color="#06395F"/>
<stop offset="0.83" stop-color="#0B61A0"/>
<stop offset="1" stop-color="#0D71BA"/>
</linearGradient>
</defs>
</svg>
