<svg width="1995" height="405" viewBox="0 0 1995 405" fill="none" xmlns="http://www.w3.org/2000/svg">
<g clip-path="url(#clip0_586_489)">
<path d="M635.09 117.716C659.794 117.716 678.61 137.172 678.61 162.516C678.61 187.86 659.794 207.316 635.09 207.316H599.25V117.716H635.09ZM635.09 187.604C649.17 187.604 658.898 177.876 658.898 162.516C658.898 147.156 649.17 137.428 635.09 137.428H619.73V187.604H635.09ZM710.605 187.604H746.445V207.316H690.125V117.716H745.805V137.428H710.605V152.276H742.605V171.732H710.605V187.604ZM800.127 209.108C773.119 209.108 753.535 188.884 753.535 162.516C753.535 136.148 773.119 115.924 800.127 115.924C816.383 115.924 830.719 123.988 838.527 136.66L820.863 146.9C816.895 139.988 809.215 135.892 800.127 135.892C784.255 135.892 774.015 146.516 774.015 162.516C774.015 178.516 784.255 189.14 800.127 189.14C809.215 189.14 817.023 185.044 820.863 178.132L838.527 188.372C830.847 201.044 816.511 209.108 800.127 209.108ZM868.605 187.604H904.445V207.316H848.125V117.716H903.805V137.428H868.605V152.276H900.605V171.732H868.605V187.604ZM965.92 117.716H986.4V207.316H971.04L936.48 158.676V207.316H916V117.716H931.36L965.92 166.356V117.716ZM1061.91 117.716V137.428H1038.87V207.316H1018.39V137.428H995.35V117.716H1061.91ZM1117.98 207.316L1101.08 177.876H1091.36V207.316H1070.88V117.716H1106.72C1123.74 117.716 1137.44 131.412 1137.44 148.436C1137.44 159.444 1130.78 169.428 1120.92 174.42L1140 207.316H1117.98ZM1091.36 136.916V159.956H1106.72C1112.35 159.956 1116.96 154.964 1116.96 148.436C1116.96 141.908 1112.35 136.916 1106.72 136.916H1091.36ZM1206.59 207.316L1202.11 193.236H1168.83L1164.35 207.316H1141.95L1172.41 117.716H1198.52L1228.99 207.316H1206.59ZM1174.97 174.036H1195.96L1185.47 141.14L1174.97 174.036ZM1276.13 209.108C1249.12 209.108 1229.54 188.884 1229.54 162.516C1229.54 136.148 1249.12 115.924 1276.13 115.924C1292.38 115.924 1306.72 123.988 1314.53 136.66L1296.86 146.9C1292.9 139.988 1285.22 135.892 1276.13 135.892C1260.26 135.892 1250.02 146.516 1250.02 162.516C1250.02 178.516 1260.26 189.14 1276.13 189.14C1285.22 189.14 1293.02 185.044 1296.86 178.132L1314.53 188.372C1306.85 201.044 1292.51 209.108 1276.13 209.108ZM1344.61 187.604H1376.61V207.316H1324.13V117.716H1344.61V187.604ZM1445.09 207.316L1440.61 193.236H1407.33L1402.85 207.316H1380.45L1410.91 117.716H1437.02L1467.49 207.316H1445.09ZM1413.47 174.036H1434.46L1423.97 141.14L1413.47 174.036ZM1504.61 209.108C1485.79 209.108 1473.76 200.148 1468.77 186.964L1486.43 176.724C1489.63 184.148 1495.14 189.14 1505.25 189.14C1514.98 189.14 1517.41 185.3 1517.41 181.844C1517.41 176.34 1512.29 174.164 1498.85 170.452C1485.54 166.74 1472.48 160.34 1472.48 143.188C1472.48 125.908 1487.07 115.924 1502.56 115.924C1517.28 115.924 1528.8 122.964 1535.33 136.148L1518.05 146.26C1514.98 139.86 1510.75 135.892 1502.56 135.892C1496.16 135.892 1492.96 139.092 1492.96 142.676C1492.96 146.772 1495.14 149.588 1509.09 153.812C1522.66 157.908 1537.89 162.644 1537.89 181.588C1537.89 198.868 1524.07 209.108 1504.61 209.108ZM1576.99 209.108C1558.17 209.108 1546.14 200.148 1541.15 186.964L1558.81 176.724C1562.01 184.148 1567.51 189.14 1577.63 189.14C1587.35 189.14 1589.79 185.3 1589.79 181.844C1589.79 176.34 1584.67 174.164 1571.23 170.452C1557.91 166.74 1544.86 160.34 1544.86 143.188C1544.86 125.908 1559.45 115.924 1574.94 115.924C1589.66 115.924 1601.18 122.964 1607.71 136.148L1590.43 146.26C1587.35 139.86 1583.13 135.892 1574.94 135.892C1568.54 135.892 1565.34 139.092 1565.34 142.676C1565.34 146.772 1567.51 149.588 1581.47 153.812C1595.03 157.908 1610.27 162.644 1610.27 181.588C1610.27 198.868 1596.44 209.108 1576.99 209.108ZM1640.36 187.604H1676.2V207.316H1619.88V117.716H1675.56V137.428H1640.36V152.276H1672.36V171.732H1640.36V187.604ZM1719.11 209.108C1700.29 209.108 1688.26 200.148 1683.27 186.964L1700.93 176.724C1704.13 184.148 1709.64 189.14 1719.75 189.14C1729.48 189.14 1731.91 185.3 1731.91 181.844C1731.91 176.34 1726.79 174.164 1713.35 170.452C1700.04 166.74 1686.98 160.34 1686.98 143.188C1686.98 125.908 1701.57 115.924 1717.06 115.924C1731.78 115.924 1743.3 122.964 1749.83 136.148L1732.55 146.26C1729.48 139.86 1725.25 135.892 1717.06 135.892C1710.66 135.892 1707.46 139.092 1707.46 142.676C1707.46 146.772 1709.64 149.588 1723.59 153.812C1737.16 157.908 1752.39 162.644 1752.39 181.588C1752.39 198.868 1738.57 209.108 1719.11 209.108Z" fill="black"/>
<path d="M413.439 101.39L556.862 135.639L441.457 43.2921H441.43L297.753 1L413.439 101.39Z" fill="url(#paint0_linear_586_489)"/>
<path d="M546.318 197.364C546.318 195.49 545.128 193.897 543.455 193.322V137.646L540.592 136.964V193.322C538.919 193.897 537.728 195.49 537.728 197.364C537.728 198.822 538.464 200.134 539.575 200.897L535.949 204.524H548.085L544.458 200.897C545.582 200.121 546.305 198.822 546.305 197.364H546.318ZM541.675 198.796L542.023 198.448L542.371 198.796H541.689H541.675Z" fill="url(#paint1_linear_586_489)"/>
<path d="M411.017 105.914L335.78 40.6957L313.528 96.3713C380.711 89.8535 438.741 125.32 463.106 176.445C468.07 186.871 467.602 183.726 469.569 195.222L499.889 127.22L411.03 105.927L411.017 105.914Z" fill="url(#paint2_linear_586_489)"/>
<path d="M306.383 339.604C290.634 336.258 276.706 328.523 264.61 316.424C260.944 312.757 257.679 308.916 254.815 304.927C252.487 301.662 250.427 298.303 248.634 294.809C244.285 313.359 236.471 327.465 225.272 336.928L225.138 337.048C221.472 340.273 217.03 342.816 211.932 344.623C209.751 345.399 207.596 346.069 205.469 346.604C207.369 349.053 209.363 351.475 211.437 353.831C213.858 356.601 216.401 359.318 219.063 361.982C231.199 374.12 244.392 383.757 258.629 390.877C261.76 392.456 264.944 393.901 268.196 395.213C273.869 391.693 279.261 387.611 284.373 383.021C295.264 372.996 304.336 361.473 311.307 348.732C312.685 346.229 313.983 343.659 315.214 341.01C312.204 340.688 309.26 340.233 306.37 339.604H306.383Z" fill="url(#paint3_linear_586_489)"/>
<path d="M213.002 368.031C224.134 379.166 236.177 388.334 249.062 395.467C240.378 399.134 231.106 401.757 221.271 403.337C210.272 405.117 197.882 406 184.074 406H104.729C93.6633 406 85.314 404.34 79.721 400.995C74.1147 397.649 70.4619 392.924 68.7492 386.848C67.0365 380.759 66.1802 372.876 66.1802 363.159V259.878H127.074V357.618H173.196C183.298 357.618 191.232 357.351 196.972 356.802C198.658 356.641 200.371 356.414 202.084 356.106C205.482 360.188 209.108 364.163 212.975 368.031H213.002Z" fill="url(#paint4_linear_586_489)"/>
<path d="M213.002 368.031C224.134 379.166 236.177 388.334 249.062 395.467C240.378 399.134 231.106 401.757 221.271 403.337C210.272 405.117 197.882 406 184.074 406H104.729C93.6633 406 85.314 404.34 79.721 400.995C74.1147 397.649 70.4619 392.924 68.7492 386.848C67.0365 380.759 66.1802 372.876 66.1802 363.159V259.878H127.074V357.618H173.196C183.298 357.618 191.232 357.351 196.972 356.802C198.658 356.641 200.371 356.414 202.084 356.106C205.482 360.188 209.108 364.163 212.975 368.031H213.002Z" fill="url(#paint5_linear_586_489)"/>
<path d="M306.383 339.604C305.554 341.304 304.697 342.963 303.787 344.596C297.231 356.548 288.828 367.255 278.579 376.69C272.384 382.258 265.734 386.982 258.656 390.85C244.406 383.73 231.226 374.094 219.09 361.955C216.427 359.291 213.885 356.575 211.463 353.804C212.574 353.456 213.698 353.095 214.822 352.693C220.977 350.512 226.302 347.434 230.811 343.472C241.77 334.224 249.771 321.362 254.815 304.927C257.679 308.929 260.944 312.757 264.61 316.424C276.706 328.523 290.634 336.258 306.383 339.604Z" fill="url(#paint6_linear_586_489)"/>
<path d="M306.383 339.604C305.554 341.304 304.697 342.963 303.787 344.596C297.231 356.548 288.828 367.255 278.579 376.69C272.384 382.258 265.734 386.982 258.656 390.85C244.406 383.73 231.226 374.094 219.09 361.955C216.427 359.291 213.885 356.575 211.463 353.804C212.574 353.456 213.698 353.095 214.822 352.693C220.977 350.512 226.302 347.434 230.811 343.472C241.77 334.224 249.771 321.362 254.815 304.927C257.679 308.929 260.944 312.757 264.61 316.424C276.706 328.523 290.634 336.258 306.383 339.604Z" fill="url(#paint7_linear_586_489)"/>
<path d="M323.068 254.886C323.068 272.927 321.489 289.416 318.358 304.298C316.298 314.028 313.515 323.129 310.009 331.587C295.09 328.804 282.138 321.777 270.684 310.334C265.439 305.088 261.131 299.52 257.732 293.592C260.154 282.041 261.372 268.993 261.372 254.458C261.372 239.923 260.342 227.611 258.254 216.783C257.478 212.755 256.568 208.967 255.511 205.407C253.504 198.689 250.989 192.84 247.951 187.821C239 173.059 227.961 163.664 214.835 159.622C213.457 159.194 212.039 158.806 210.607 158.418C207.583 157.628 204.439 156.945 201.147 156.356C199.421 156.035 197.655 155.754 195.849 155.5C195.942 145.502 196.384 138.034 195.942 128.693C195.594 120.729 195.942 111.883 195.969 105.686C211.075 106.342 224.415 108.149 235.936 111.133C240.512 112.325 244.968 113.837 249.289 115.657C252.514 117.049 255.672 118.588 258.749 120.341C264.837 123.754 270.618 127.849 276.117 132.668C288.681 143.428 298.716 156.423 306.236 171.681C307.52 174.29 308.725 176.954 309.862 179.684C318.666 200.83 323.068 225.897 323.068 254.873V254.886Z" fill="url(#paint8_linear_586_489)"/>
<path d="M323.068 254.886C323.068 272.927 321.489 289.416 318.358 304.298C316.298 314.028 313.515 323.129 310.009 331.587C295.09 328.804 282.138 321.777 270.684 310.334C265.439 305.088 261.131 299.52 257.732 293.592C260.154 282.041 261.372 268.993 261.372 254.458C261.372 239.923 260.342 227.611 258.254 216.783C257.478 212.755 256.568 208.967 255.511 205.407C253.504 198.689 250.989 192.84 247.951 187.821C239 173.059 227.961 163.664 214.835 159.622C213.457 159.194 212.039 158.806 210.607 158.418C207.583 157.628 204.439 156.945 201.147 156.356C199.421 156.035 197.655 155.754 195.849 155.5C195.942 145.502 196.384 138.034 195.942 128.693C195.594 120.729 195.942 111.883 195.969 105.686C211.075 106.342 224.415 108.149 235.936 111.133C240.512 112.325 244.968 113.837 249.289 115.657C252.514 117.049 255.672 118.588 258.749 120.341C264.837 123.754 270.618 127.849 276.117 132.668C288.681 143.428 298.716 156.423 306.236 171.681C307.52 174.29 308.725 176.954 309.862 179.684C318.666 200.83 323.068 225.897 323.068 254.873V254.886Z" fill="url(#paint9_linear_586_489)"/>
<path d="M174.641 74.8907H111.874V128.706H174.641V74.8907Z" fill="url(#paint10_linear_586_489)"/>
<path d="M154.463 175.789H91.6965V229.605H154.463V175.789Z" fill="url(#paint11_linear_586_489)"/>
<path d="M154.463 175.789H91.6965V229.605H154.463V175.789Z" fill="url(#paint12_linear_586_489)"/>
<path d="M65.926 206.063H34.5359V232.964H65.926V206.063Z" fill="url(#paint13_linear_586_489)"/>
<path d="M65.926 206.063H34.5359V232.964H65.926V206.063Z" fill="url(#paint14_linear_586_489)"/>
<path d="M52.4788 81.6227H21.0886V108.524H52.4788V81.6227Z" fill="url(#paint15_linear_586_489)"/>
<path d="M52.4788 81.6227H21.0886V108.524H52.4788V81.6227Z" fill="url(#paint16_linear_586_489)"/>
<path d="M53.5894 152.248H37.8943V165.698H53.5894V152.248Z" fill="url(#paint17_linear_586_489)"/>
<path d="M53.5894 152.248H37.8943V165.698H53.5894V152.248Z" fill="url(#paint18_linear_586_489)"/>
<path d="M26.6951 132.065H11V145.516H26.6951V132.065Z" fill="url(#paint19_linear_586_489)"/>
<path d="M26.6951 132.065H11V145.516H26.6951V132.065Z" fill="url(#paint20_linear_586_489)"/>
<path d="M80.4971 47.9897H64.802V61.4402H80.4971V47.9897Z" fill="url(#paint21_linear_586_489)"/>
<path d="M80.4971 47.9897H64.802V61.4402H80.4971V47.9897Z" fill="url(#paint22_linear_586_489)"/>
<path d="M83.2937 108.524H71.519V118.615H83.2937V108.524Z" fill="url(#paint23_linear_586_489)"/>
<path d="M83.2937 108.524H71.519V118.615H83.2937V108.524Z" fill="url(#paint24_linear_586_489)"/>
<path d="M410.642 266.369C408.501 285.561 400.339 302.237 386.156 316.424C369.404 333.18 349.147 341.558 325.383 341.558C321.918 341.558 318.546 341.384 315.227 341.009C312.217 340.688 309.273 340.233 306.383 339.604C290.635 336.258 276.706 328.523 264.61 316.424C260.944 312.757 257.679 308.916 254.816 304.927C252.487 301.662 250.427 298.302 248.634 294.809C242.532 283.018 239.482 269.983 239.482 255.649C239.482 241.315 242.72 227.477 249.182 215.418C247.162 206.143 244.299 198.421 240.579 192.305C232.685 179.282 223.425 171.292 212.293 167.866C209.885 167.117 207.316 166.448 204.599 165.845C184.904 191.689 175.056 221.628 175.056 255.649C175.056 289.67 185.198 320.492 205.482 346.59C207.382 349.04 209.376 351.462 211.45 353.817C213.872 356.588 216.414 359.305 219.077 361.968C231.213 374.107 244.406 383.743 258.642 390.863C261.773 392.442 264.958 393.888 268.209 395.199C285.764 402.4 304.831 406 325.37 406C366.889 406 402.32 391.318 431.676 361.968C458.45 335.188 472.981 303.321 475.269 266.383H410.629L410.642 266.369ZM276.13 132.681C270.631 127.849 264.851 123.754 258.763 120.355C244.486 127.475 231.266 137.138 219.09 149.303C216.106 152.288 213.283 155.326 210.607 158.444C212.039 158.832 213.457 159.22 214.835 159.649C227.961 163.691 239 173.086 247.951 187.848C250.989 192.853 253.504 198.715 255.511 205.434C258.201 201.753 261.251 198.234 264.637 194.848C276.692 182.789 290.581 175.053 306.263 171.694C298.743 156.437 288.708 143.441 276.144 132.681H276.13ZM431.689 149.303C402.347 119.953 366.902 105.271 325.383 105.271C304.858 105.271 285.804 108.872 268.249 116.059C272.932 119.043 277.455 122.429 281.777 126.217C295.813 138.235 306.918 152.957 315.04 170.275C318.399 169.901 321.864 169.713 325.397 169.713C349.16 169.713 369.418 178.091 386.17 194.848C400.339 209.021 408.501 225.71 410.656 244.902H475.296C473.008 207.95 458.477 176.097 431.703 149.317L431.689 149.303Z" fill="url(#paint25_linear_586_489)"/>
<path d="M431.689 149.303C402.347 119.953 366.902 105.271 325.383 105.271C304.858 105.271 285.804 108.872 268.249 116.059C272.932 119.043 277.455 122.429 281.777 126.217C295.813 138.235 306.918 152.957 315.04 170.275C318.399 169.901 321.864 169.713 325.397 169.713C349.16 169.713 369.418 178.091 386.17 194.848C400.339 209.021 408.501 225.71 410.656 244.902H475.296C473.008 207.95 458.477 176.097 431.703 149.317L431.689 149.303ZM276.13 132.681C270.631 127.849 264.851 123.754 258.763 120.355C244.486 127.475 231.266 137.138 219.09 149.303C216.106 152.288 213.283 155.326 210.607 158.444C212.039 158.832 213.457 159.22 214.835 159.649C227.961 163.691 239 173.086 247.951 187.848C250.989 192.853 253.504 198.715 255.511 205.434C258.201 201.753 261.251 198.234 264.637 194.848C276.692 182.789 290.581 175.053 306.263 171.694C298.743 156.437 288.708 143.441 276.144 132.681H276.13ZM410.642 266.369C408.501 285.561 400.339 302.237 386.156 316.424C369.404 333.18 349.147 341.558 325.383 341.558C321.918 341.558 318.546 341.384 315.227 341.009C312.217 340.688 309.273 340.233 306.383 339.604C290.635 336.258 276.706 328.523 264.61 316.424C260.944 312.757 257.679 308.916 254.816 304.927C252.487 301.662 250.427 298.302 248.634 294.809C242.532 283.018 239.482 269.983 239.482 255.649C239.482 241.315 242.72 227.477 249.182 215.418C247.162 206.143 244.299 198.421 240.579 192.305C232.685 179.282 223.425 171.292 212.293 167.866C209.885 167.117 207.316 166.448 204.599 165.845C184.904 191.689 175.056 221.628 175.056 255.649C175.056 289.67 185.198 320.492 205.482 346.59C207.382 349.04 209.376 351.462 211.45 353.817C213.872 356.588 216.414 359.305 219.077 361.968C231.213 374.107 244.406 383.743 258.642 390.863C261.773 392.442 264.958 393.888 268.209 395.199C285.764 402.4 304.831 406 325.37 406C366.889 406 402.32 391.318 431.676 361.968C458.45 335.188 472.981 303.321 475.269 266.383H410.629L410.642 266.369Z" fill="url(#paint26_linear_586_489)"/>
<path d="M752.876 340.196H786.476V344.996H747.788V277.796H785.996V282.596H752.876V308.708H783.596V313.508H752.876V340.196ZM798.015 344.996V274.916H802.815V344.996H798.015ZM839.209 295.94C853.801 295.94 862.921 308.036 862.921 321.188C862.921 321.956 862.825 322.724 862.825 323.492H819.337C820.489 334.34 828.745 341.444 839.689 341.444C847.561 341.444 853.513 337.796 856.297 332.708L860.521 335.204C856.585 341.732 849.097 346.052 839.593 346.052C824.809 346.052 814.345 335.492 814.345 320.996C814.345 306.884 824.521 295.94 839.209 295.94ZM839.209 300.548C828.265 300.548 820.297 308.132 819.337 318.788H857.929C856.873 307.076 848.617 300.548 839.209 300.548ZM907.497 296.996H912.585L892.329 344.996H886.473L866.121 296.996H871.305L889.353 340.004L907.497 296.996ZM961.662 296.996H966.558V344.996H961.662V334.148C957.63 341.348 950.238 346.052 941.022 346.052C927.39 346.052 916.158 335.204 916.158 320.996C916.158 306.788 927.39 295.94 941.022 295.94C950.238 295.94 957.63 300.644 961.662 307.844V296.996ZM941.406 341.444C952.83 341.444 961.662 332.42 961.662 320.996C961.662 309.572 952.83 300.548 941.406 300.548C929.982 300.548 921.054 309.572 921.054 320.996C921.054 332.42 929.982 341.444 941.406 341.444ZM1005.87 301.7H991.569V332.9C991.569 341.348 996.081 341.54 1005.87 340.676V344.996C993.297 346.916 986.673 343.844 986.673 332.9V301.7H976.113V296.996H986.673V284.996L991.569 283.556V296.996H1005.87V301.7ZM1036.08 295.94C1050.68 295.94 1059.8 308.036 1059.8 321.188C1059.8 321.956 1059.7 322.724 1059.7 323.492H1016.21C1017.36 334.34 1025.62 341.444 1036.56 341.444C1044.44 341.444 1050.39 337.796 1053.17 332.708L1057.4 335.204C1053.46 341.732 1045.97 346.052 1036.47 346.052C1021.68 346.052 1011.22 335.492 1011.22 320.996C1011.22 306.884 1021.4 295.94 1036.08 295.94ZM1036.08 300.548C1025.14 300.548 1017.17 308.132 1016.21 318.788H1054.8C1053.75 307.076 1045.49 300.548 1036.08 300.548ZM1102.66 340.196H1136.26V344.996H1097.57V277.796H1135.78V282.596H1102.66V308.708H1133.38V313.508H1102.66V340.196ZM1189.1 296.996H1194V344.996H1189.1V334.148C1185.07 341.348 1177.68 346.052 1168.46 346.052C1154.83 346.052 1143.6 335.204 1143.6 320.996C1143.6 306.788 1154.83 295.94 1168.46 295.94C1177.68 295.94 1185.07 300.644 1189.1 307.844V296.996ZM1168.84 341.444C1180.27 341.444 1189.1 332.42 1189.1 320.996C1189.1 309.572 1180.27 300.548 1168.84 300.548C1157.42 300.548 1148.49 309.572 1148.49 320.996C1148.49 332.42 1157.42 341.444 1168.84 341.444ZM1213.53 306.404C1216.8 298.82 1223.04 296.324 1229.57 296.324V300.932C1221.31 300.932 1213.53 306.02 1213.53 318.308V344.996H1208.73V296.996H1213.53V306.404ZM1261.28 295.94C1272.7 295.94 1279.9 303.524 1279.9 315.14V344.996H1275.01V315.14C1275.01 306.308 1269.92 300.548 1260.9 300.548C1251.49 300.548 1244.1 306.692 1244.1 319.652V344.996H1239.3V296.996H1244.1V306.116C1247.74 299.012 1253.89 295.94 1261.28 295.94ZM1325.13 340.196H1358.73V344.996H1320.04V277.796H1358.25V282.596H1325.13V308.708H1355.85V313.508H1325.13V340.196ZM1409.24 344.996H1403.39L1387.16 324.068L1370.94 344.996H1365.08L1384.28 320.324L1366.23 296.996H1372.09L1387.16 316.484L1402.33 296.996H1408.09L1390.14 320.228L1409.24 344.996ZM1437.91 346.052C1423.41 346.052 1412.66 335.204 1412.66 320.996C1412.66 306.788 1423.41 295.94 1437.91 295.94C1447.31 295.94 1455.38 300.74 1458.83 308.228L1454.9 310.532C1452.11 304.484 1445.59 300.548 1437.91 300.548C1426.29 300.548 1417.55 309.572 1417.55 320.996C1417.55 332.42 1426.29 341.444 1437.91 341.444C1445.68 341.444 1452.02 337.412 1455.19 331.46L1459.22 333.86C1455.38 341.252 1447.31 346.052 1437.91 346.052ZM1490.87 295.94C1505.46 295.94 1514.58 308.036 1514.58 321.188C1514.58 321.956 1514.48 322.724 1514.48 323.492H1470.99C1472.15 334.34 1480.4 341.444 1491.35 341.444C1499.22 341.444 1505.17 337.796 1507.95 332.708L1512.18 335.204C1508.24 341.732 1500.75 346.052 1491.25 346.052C1476.47 346.052 1466 335.492 1466 320.996C1466 306.884 1476.18 295.94 1490.87 295.94ZM1490.87 300.548C1479.92 300.548 1471.95 308.132 1470.99 318.788H1509.59C1508.53 307.076 1500.27 300.548 1490.87 300.548ZM1525.8 344.996V274.916H1530.6V344.996H1525.8Z" fill="#231F20"/>
</g>
<defs>
<linearGradient id="paint0_linear_586_489" x1="396.178" y1="99.4495" x2="458.438" y2="37.2044" gradientUnits="userSpaceOnUse">
<stop/>
<stop offset="0.48" stop-color="#06395F"/>
<stop offset="0.83" stop-color="#0B61A0"/>
<stop offset="1" stop-color="#0D71BA"/>
</linearGradient>
<linearGradient id="paint1_linear_586_489" x1="523.264" y1="191.836" x2="560.444" y2="154.652" gradientUnits="userSpaceOnUse">
<stop/>
<stop offset="0.48" stop-color="#06395F"/>
<stop offset="0.83" stop-color="#0B61A0"/>
<stop offset="1" stop-color="#0D71BA"/>
</linearGradient>
<linearGradient id="paint2_linear_586_489" x1="368.896" y1="151.739" x2="446.668" y2="73.9863" gradientUnits="userSpaceOnUse">
<stop/>
<stop offset="0.48" stop-color="#06395F"/>
<stop offset="0.83" stop-color="#0B61A0"/>
<stop offset="1" stop-color="#0D71BA"/>
</linearGradient>
<linearGradient id="paint3_linear_586_489" x1="231.32" y1="374.187" x2="289.873" y2="315.649" gradientUnits="userSpaceOnUse">
<stop/>
<stop offset="0.48" stop-color="#06395F"/>
<stop offset="0.83" stop-color="#0B61A0"/>
<stop offset="1" stop-color="#0D71BA"/>
</linearGradient>
<linearGradient id="paint4_linear_586_489" x1="81.4471" y1="403.872" x2="176.27" y2="309.073" gradientUnits="userSpaceOnUse">
<stop/>
<stop offset="0.48" stop-color="#06395F"/>
<stop offset="0.83" stop-color="#0B61A0"/>
<stop offset="1" stop-color="#0D71BA"/>
</linearGradient>
<linearGradient id="paint5_linear_586_489" x1="81.4471" y1="403.872" x2="176.27" y2="309.073" gradientUnits="userSpaceOnUse">
<stop/>
<stop offset="0.48" stop-color="#06395F"/>
<stop offset="0.83" stop-color="#0B61A0"/>
<stop offset="1" stop-color="#0D71BA"/>
</linearGradient>
<linearGradient id="paint6_linear_586_489" x1="232.363" y1="375.231" x2="287.196" y2="320.412" gradientUnits="userSpaceOnUse">
<stop/>
<stop offset="0.48" stop-color="#06395F"/>
<stop offset="0.83" stop-color="#0B61A0"/>
<stop offset="1" stop-color="#0D71BA"/>
</linearGradient>
<linearGradient id="paint7_linear_586_489" x1="232.363" y1="375.231" x2="287.196" y2="320.412" gradientUnits="userSpaceOnUse">
<stop/>
<stop offset="0.48" stop-color="#06395F"/>
<stop offset="0.83" stop-color="#0B61A0"/>
<stop offset="1" stop-color="#0D71BA"/>
</linearGradient>
<linearGradient id="paint8_linear_586_489" x1="215.999" y1="255.649" x2="307.811" y2="163.86" gradientUnits="userSpaceOnUse">
<stop/>
<stop offset="0.48" stop-color="#06395F"/>
<stop offset="0.83" stop-color="#0B61A0"/>
<stop offset="1" stop-color="#0D71BA"/>
</linearGradient>
<linearGradient id="paint9_linear_586_489" x1="215.999" y1="255.649" x2="307.811" y2="163.86" gradientUnits="userSpaceOnUse">
<stop/>
<stop offset="0.48" stop-color="#06395F"/>
<stop offset="0.83" stop-color="#0B61A0"/>
<stop offset="1" stop-color="#0D71BA"/>
</linearGradient>
<linearGradient id="paint10_linear_586_489" x1="114.122" y1="130.954" x2="172.421" y2="72.67" gradientUnits="userSpaceOnUse">
<stop/>
<stop offset="0.48" stop-color="#06395F"/>
<stop offset="0.83" stop-color="#0B61A0"/>
<stop offset="1" stop-color="#0D71BA"/>
</linearGradient>
<linearGradient id="paint11_linear_586_489" x1="93.9444" y1="231.853" x2="152.243" y2="173.569" gradientUnits="userSpaceOnUse">
<stop/>
<stop offset="0.48" stop-color="#06395F"/>
<stop offset="0.83" stop-color="#0B61A0"/>
<stop offset="1" stop-color="#0D71BA"/>
</linearGradient>
<linearGradient id="paint12_linear_586_489" x1="93.9444" y1="231.853" x2="152.243" y2="173.569" gradientUnits="userSpaceOnUse">
<stop/>
<stop offset="0.48" stop-color="#06395F"/>
<stop offset="0.83" stop-color="#0B61A0"/>
<stop offset="1" stop-color="#0D71BA"/>
</linearGradient>
<linearGradient id="paint13_linear_586_489" x1="35.6598" y1="234.088" x2="64.8092" y2="204.946" gradientUnits="userSpaceOnUse">
<stop/>
<stop offset="0.48" stop-color="#06395F"/>
<stop offset="0.83" stop-color="#0B61A0"/>
<stop offset="1" stop-color="#0D71BA"/>
</linearGradient>
<linearGradient id="paint14_linear_586_489" x1="35.6598" y1="234.088" x2="64.8092" y2="204.946" gradientUnits="userSpaceOnUse">
<stop/>
<stop offset="0.48" stop-color="#06395F"/>
<stop offset="0.83" stop-color="#0B61A0"/>
<stop offset="1" stop-color="#0D71BA"/>
</linearGradient>
<linearGradient id="paint15_linear_586_489" x1="22.2126" y1="109.648" x2="51.362" y2="80.5056" gradientUnits="userSpaceOnUse">
<stop/>
<stop offset="0.48" stop-color="#06395F"/>
<stop offset="0.83" stop-color="#0B61A0"/>
<stop offset="1" stop-color="#0D71BA"/>
</linearGradient>
<linearGradient id="paint16_linear_586_489" x1="22.2126" y1="109.648" x2="51.362" y2="80.5056" gradientUnits="userSpaceOnUse">
<stop/>
<stop offset="0.48" stop-color="#06395F"/>
<stop offset="0.83" stop-color="#0B61A0"/>
<stop offset="1" stop-color="#0D71BA"/>
</linearGradient>
<linearGradient id="paint17_linear_586_489" x1="38.4563" y1="166.26" x2="53.031" y2="151.689" gradientUnits="userSpaceOnUse">
<stop/>
<stop offset="0.48" stop-color="#06395F"/>
<stop offset="0.83" stop-color="#0B61A0"/>
<stop offset="1" stop-color="#0D71BA"/>
</linearGradient>
<linearGradient id="paint18_linear_586_489" x1="38.4563" y1="166.26" x2="53.031" y2="151.689" gradientUnits="userSpaceOnUse">
<stop/>
<stop offset="0.48" stop-color="#06395F"/>
<stop offset="0.83" stop-color="#0B61A0"/>
<stop offset="1" stop-color="#0D71BA"/>
</linearGradient>
<linearGradient id="paint19_linear_586_489" x1="11.562" y1="146.091" x2="26.1367" y2="131.52" gradientUnits="userSpaceOnUse">
<stop/>
<stop offset="0.48" stop-color="#06395F"/>
<stop offset="0.83" stop-color="#0B61A0"/>
<stop offset="1" stop-color="#0D71BA"/>
</linearGradient>
<linearGradient id="paint20_linear_586_489" x1="11.562" y1="146.091" x2="26.1367" y2="131.52" gradientUnits="userSpaceOnUse">
<stop/>
<stop offset="0.48" stop-color="#06395F"/>
<stop offset="0.83" stop-color="#0B61A0"/>
<stop offset="1" stop-color="#0D71BA"/>
</linearGradient>
<linearGradient id="paint21_linear_586_489" x1="65.364" y1="62.0023" x2="79.9387" y2="47.4312" gradientUnits="userSpaceOnUse">
<stop/>
<stop offset="0.48" stop-color="#06395F"/>
<stop offset="0.83" stop-color="#0B61A0"/>
<stop offset="1" stop-color="#0D71BA"/>
</linearGradient>
<linearGradient id="paint22_linear_586_489" x1="65.364" y1="62.0023" x2="79.9387" y2="47.4312" gradientUnits="userSpaceOnUse">
<stop/>
<stop offset="0.48" stop-color="#06395F"/>
<stop offset="0.83" stop-color="#0B61A0"/>
<stop offset="1" stop-color="#0D71BA"/>
</linearGradient>
<linearGradient id="paint23_linear_586_489" x1="71.9472" y1="119.043" x2="82.8816" y2="108.111" gradientUnits="userSpaceOnUse">
<stop/>
<stop offset="0.48" stop-color="#06395F"/>
<stop offset="0.83" stop-color="#0B61A0"/>
<stop offset="1" stop-color="#0D71BA"/>
</linearGradient>
<linearGradient id="paint24_linear_586_489" x1="71.9472" y1="119.043" x2="82.8816" y2="108.111" gradientUnits="userSpaceOnUse">
<stop/>
<stop offset="0.48" stop-color="#06395F"/>
<stop offset="0.83" stop-color="#0B61A0"/>
<stop offset="1" stop-color="#0D71BA"/>
</linearGradient>
<linearGradient id="paint25_linear_586_489" x1="219.077" y1="361.955" x2="431.742" y2="149.355" gradientUnits="userSpaceOnUse">
<stop/>
<stop offset="0.48" stop-color="#06395F"/>
<stop offset="0.83" stop-color="#0B61A0"/>
<stop offset="1" stop-color="#0D71BA"/>
</linearGradient>
<linearGradient id="paint26_linear_586_489" x1="219.077" y1="361.955" x2="431.742" y2="149.355" gradientUnits="userSpaceOnUse">
<stop/>
<stop offset="0.48" stop-color="#06395F"/>
<stop offset="0.83" stop-color="#0B61A0"/>
<stop offset="1" stop-color="#0D71BA"/>
</linearGradient>
<clipPath id="clip0_586_489">
<rect width="1995" height="405" fill="white"/>
</clipPath>
</defs>
</svg>
