<svg width="21" height="21" viewBox="0 0 21 21" fill="none" xmlns="http://www.w3.org/2000/svg">
<path d="M16.625 13.125V2.625H20.125V13.125H16.625ZM13.125 2.625C13.5891 2.625 14.0342 2.80938 14.3624 3.13756C14.6906 3.46575 14.875 3.91087 14.875 4.375V13.125C14.875 13.6062 14.6825 14.0437 14.3587 14.3587L8.60125 20.125L7.67375 19.1975C7.4375 18.9613 7.28875 18.6375 7.28875 18.2788L7.315 17.9987L8.14625 14H2.625C2.16087 14 1.71575 13.8156 1.38756 13.4874C1.05938 13.1592 0.875 12.7141 0.875 12.25V10.5C0.875 10.2725 0.918749 10.0625 0.997499 9.86125L3.64 3.6925C3.9025 3.0625 4.52375 2.625 5.25 2.625H13.125ZM13.125 4.375H5.22375L2.625 10.5V12.25H10.3162L9.3275 16.905L13.125 13.0988V4.375Z" fill="black"/>
</svg>
