<svg width="4551" height="1260" viewBox="0 0 4551 1260" fill="none" xmlns="http://www.w3.org/2000/svg">
<g clip-path="url(#clip0_585_489)">
<path d="M2171.63 703H2113.83V546.636H2171.55C2187.49 546.636 2201.2 549.767 2212.71 556.027C2224.26 562.237 2233.17 571.195 2239.43 582.902C2245.69 594.558 2248.82 608.505 2248.82 624.742C2248.82 641.03 2245.69 655.027 2239.43 666.734C2233.22 678.441 2224.34 687.425 2212.78 693.685C2201.23 699.895 2187.51 703 2171.63 703ZM2151.63 670.781H2170.18C2178.93 670.781 2186.34 669.304 2192.4 666.352C2198.51 663.349 2203.11 658.488 2206.22 651.77C2209.37 645 2210.95 635.991 2210.95 624.742C2210.95 613.493 2209.37 604.535 2206.22 597.867C2203.06 591.148 2198.4 586.313 2192.25 583.36C2186.14 580.357 2178.6 578.856 2169.65 578.856H2151.63V670.781ZM2270.88 703V546.636H2379.91V577.329H2308.68V609.396H2374.34V640.164H2308.68V672.308H2379.91V703H2270.88ZM2545.51 603.288H2507.34C2506.83 599.368 2505.79 595.831 2504.21 592.675C2502.63 589.519 2500.54 586.822 2497.95 584.582C2495.35 582.342 2492.27 580.637 2488.71 579.467C2485.2 578.245 2481.3 577.634 2477.03 577.634C2469.44 577.634 2462.9 579.492 2457.41 583.208C2451.96 586.923 2447.76 592.293 2444.81 599.317C2441.91 606.342 2440.46 614.842 2440.46 624.818C2440.46 635.202 2441.93 643.906 2444.89 650.93C2447.89 657.903 2452.09 663.171 2457.48 666.734C2462.93 670.246 2469.37 672.002 2476.8 672.002C2480.97 672.002 2484.77 671.468 2488.18 670.399C2491.64 669.33 2494.67 667.777 2497.26 665.741C2499.91 663.655 2502.07 661.135 2503.75 658.183C2505.48 655.18 2506.68 651.795 2507.34 648.028L2545.51 648.257C2544.85 655.18 2542.84 662 2539.48 668.719C2536.17 675.438 2531.62 681.571 2525.82 687.119C2520.01 692.616 2512.94 696.994 2504.59 700.251C2496.29 703.509 2486.78 705.138 2476.04 705.138C2461.89 705.138 2449.21 702.033 2438.01 695.823C2426.87 689.562 2418.06 680.451 2411.6 668.49C2405.13 656.529 2401.9 641.971 2401.9 624.818C2401.9 607.614 2405.18 593.031 2411.75 581.07C2418.32 569.109 2427.2 560.023 2438.4 553.813C2449.59 547.603 2462.14 544.499 2476.04 544.499C2485.5 544.499 2494.26 545.822 2502.3 548.469C2510.34 551.065 2517.42 554.882 2523.53 559.921C2529.63 564.909 2534.6 571.043 2538.41 578.321C2542.23 585.6 2544.6 593.922 2545.51 603.288ZM2567.14 703V546.636H2676.17V577.329H2604.93V609.396H2670.59V640.164H2604.93V672.308H2676.17V703H2567.14ZM2832.91 546.636V703H2800.85L2738.62 612.755H2737.63V703H2699.84V546.636H2732.36L2793.9 636.729H2795.2V546.636H2832.91ZM2851.56 577.329V546.636H2983.72V577.329H2936.31V703H2899.05V577.329H2851.56ZM3002.18 703V546.636H3066.77C3078.48 546.636 3088.58 548.749 3097.08 552.973C3105.63 557.147 3112.22 563.153 3116.86 570.992C3121.49 578.779 3123.8 588.018 3123.8 598.707C3123.8 609.548 3121.44 618.761 3116.7 626.345C3111.97 633.878 3105.25 639.63 3096.55 643.6C3087.84 647.519 3077.54 649.479 3065.63 649.479H3024.78V619.703H3058.6C3064.3 619.703 3069.06 618.965 3072.88 617.489C3076.75 615.962 3079.67 613.671 3081.66 610.617C3083.64 607.512 3084.64 603.542 3084.64 598.707C3084.64 593.871 3083.64 589.876 3081.66 586.72C3079.67 583.513 3076.75 581.121 3072.88 579.543C3069.01 577.914 3064.25 577.1 3058.6 577.1H3039.97V703H3002.18ZM3090.21 631.537L3129.15 703H3087.92L3049.74 631.537H3090.21ZM3178.36 703H3137.74L3190.49 546.636H3240.81L3293.57 703H3252.95L3216.22 586.033H3215L3178.36 703ZM3172.93 641.462H3257.83V670.17H3172.93V641.462ZM3444.99 603.288H3406.81C3406.3 599.368 3405.26 595.831 3403.68 592.675C3402.1 589.519 3400.02 586.822 3397.42 584.582C3394.82 582.342 3391.75 580.637 3388.18 579.467C3384.67 578.245 3380.78 577.634 3376.5 577.634C3368.92 577.634 3362.38 579.492 3356.88 583.208C3351.43 586.923 3347.23 592.293 3344.28 599.317C3341.38 606.342 3339.93 614.842 3339.93 624.818C3339.93 635.202 3341.41 643.906 3344.36 650.93C3347.36 657.903 3351.56 663.171 3356.96 666.734C3362.4 670.246 3368.84 672.002 3376.27 672.002C3380.45 672.002 3384.24 671.468 3387.65 670.399C3391.11 669.33 3394.14 667.777 3396.73 665.741C3399.38 663.655 3401.54 661.135 3403.22 658.183C3404.95 655.18 3406.15 651.795 3406.81 648.028L3444.99 648.257C3444.32 655.18 3442.31 662 3438.95 668.719C3435.65 675.438 3431.09 681.571 3425.29 687.119C3419.49 692.616 3412.41 696.994 3404.06 700.251C3395.77 703.509 3386.25 705.138 3375.51 705.138C3361.36 705.138 3348.68 702.033 3337.49 695.823C3326.34 689.562 3317.53 680.451 3311.07 668.49C3304.61 656.529 3301.37 641.971 3301.37 624.818C3301.37 607.614 3304.66 593.031 3311.22 581.07C3317.79 569.109 3326.67 560.023 3337.87 553.813C3349.07 547.603 3361.61 544.499 3375.51 544.499C3384.98 544.499 3393.73 545.822 3401.77 548.469C3409.81 551.065 3416.89 554.882 3423 559.921C3429.11 564.909 3434.07 571.043 3437.89 578.321C3441.7 585.6 3444.07 593.922 3444.99 603.288ZM3466.61 703V546.636H3504.41V672.308H3569.46V703H3466.61ZM3624.94 703H3584.32L3637.08 546.636H3687.4L3740.15 703H3699.54L3662.81 586.033H3661.59L3624.94 703ZM3619.52 641.462H3704.42V670.17H3619.52V641.462ZM3836.68 593.515C3836.17 587.916 3833.9 583.564 3829.88 580.459C3825.91 577.303 3820.24 575.725 3812.86 575.725C3807.97 575.725 3803.9 576.362 3800.64 577.634C3797.38 578.907 3794.94 580.663 3793.31 582.902C3791.68 585.091 3790.84 587.611 3790.79 590.461C3790.69 592.802 3791.15 594.864 3792.17 596.645C3793.24 598.427 3794.76 600.005 3796.75 601.379C3798.78 602.702 3801.23 603.873 3804.08 604.891C3806.93 605.909 3810.13 606.8 3813.7 607.563L3827.13 610.617C3834.87 612.297 3841.69 614.536 3847.6 617.336C3853.55 620.135 3858.54 623.469 3862.56 627.338C3866.63 631.206 3869.71 635.66 3871.8 640.699C3873.89 645.738 3874.95 651.388 3875.01 657.648C3874.95 667.523 3872.46 675.998 3867.52 683.073C3862.59 690.148 3855.49 695.569 3846.22 699.335C3837.01 703.102 3825.89 704.985 3812.86 704.985C3799.78 704.985 3788.37 703.025 3778.65 699.106C3768.93 695.187 3761.37 689.232 3755.98 681.24C3750.58 673.249 3747.81 663.146 3747.65 650.93H3783.84C3784.15 655.969 3785.5 660.168 3787.89 663.527C3790.28 666.887 3793.57 669.432 3797.74 671.162C3801.96 672.893 3806.85 673.758 3812.4 673.758C3817.49 673.758 3821.82 673.071 3825.38 671.697C3828.99 670.322 3831.77 668.414 3833.7 665.971C3835.63 663.527 3836.63 660.728 3836.68 657.572C3836.63 654.62 3835.71 652.1 3833.93 650.013C3832.15 647.876 3829.4 646.043 3825.68 644.516C3822.02 642.938 3817.34 641.488 3811.64 640.164L3795.3 636.347C3781.76 633.242 3771.09 628.228 3763.31 621.306C3755.52 614.333 3751.65 604.916 3751.7 593.057C3751.65 583.386 3754.25 574.911 3759.49 567.632C3764.73 560.354 3771.98 554.679 3781.25 550.607C3790.51 546.535 3801.07 544.499 3812.93 544.499C3825.05 544.499 3835.56 546.56 3844.47 550.683C3853.42 554.755 3860.37 560.481 3865.31 567.862C3870.25 575.242 3872.77 583.793 3872.87 593.515H3836.68ZM3978.61 593.515C3978.1 587.916 3975.84 583.564 3971.82 580.459C3967.85 577.303 3962.17 575.725 3954.79 575.725C3949.9 575.725 3945.83 576.362 3942.57 577.634C3939.32 578.907 3936.87 580.663 3935.25 582.902C3933.62 585.091 3932.78 587.611 3932.73 590.461C3932.62 592.802 3933.08 594.864 3934.1 596.645C3935.17 598.427 3936.7 600.005 3938.68 601.379C3940.72 602.702 3943.16 603.873 3946.01 604.891C3948.86 605.909 3952.07 606.8 3955.63 607.563L3969.07 610.617C3976.8 612.297 3983.63 614.536 3989.53 617.336C3995.49 620.135 4000.47 623.469 4004.49 627.338C4008.57 631.206 4011.65 635.66 4013.73 640.699C4015.82 645.738 4016.89 651.388 4016.94 657.648C4016.89 667.523 4014.39 675.998 4009.46 683.073C4004.52 690.148 3997.42 695.569 3988.16 699.335C3978.94 703.102 3967.82 704.985 3954.79 704.985C3941.71 704.985 3930.31 703.025 3920.59 699.106C3910.86 695.187 3903.31 689.232 3897.91 681.24C3892.52 673.249 3889.74 663.146 3889.59 650.93H3925.78C3926.08 655.969 3927.43 660.168 3929.82 663.527C3932.22 666.887 3935.5 669.432 3939.67 671.162C3943.9 672.893 3948.78 673.758 3954.33 673.758C3959.42 673.758 3963.75 673.071 3967.31 671.697C3970.93 670.322 3973.7 668.414 3975.63 665.971C3977.57 663.527 3978.56 660.728 3978.61 657.572C3978.56 654.62 3977.64 652.1 3975.86 650.013C3974.08 647.876 3971.33 646.043 3967.62 644.516C3963.95 642.938 3959.27 641.488 3953.57 640.164L3937.23 636.347C3923.69 633.242 3913.03 628.228 3905.24 621.306C3897.45 614.333 3893.58 604.916 3893.63 593.057C3893.58 583.386 3896.18 574.911 3901.42 567.632C3906.67 560.354 3913.92 554.679 3923.18 550.607C3932.45 546.535 3943.01 544.499 3954.87 544.499C3966.98 544.499 3977.49 546.56 3986.4 550.683C3995.36 554.755 4002.31 560.481 4007.24 567.862C4012.18 575.242 4014.7 583.793 4014.8 593.515H3978.61ZM4036.03 703V546.636H4145.05V577.329H4073.82V609.396H4139.48V640.164H4073.82V672.308H4145.05V703H4036.03ZM4253.24 593.515C4252.73 587.916 4250.47 583.564 4246.45 580.459C4242.48 577.303 4236.8 575.725 4229.42 575.725C4224.53 575.725 4220.46 576.362 4217.2 577.634C4213.95 578.907 4211.5 580.663 4209.87 582.902C4208.25 585.091 4207.41 587.611 4207.35 590.461C4207.25 592.802 4207.71 594.864 4208.73 596.645C4209.8 598.427 4211.32 600.005 4213.31 601.379C4215.35 602.702 4217.79 603.873 4220.64 604.891C4223.49 605.909 4226.7 606.8 4230.26 607.563L4243.7 610.617C4251.43 612.297 4258.25 614.536 4264.16 617.336C4270.11 620.135 4275.1 623.469 4279.12 627.338C4283.2 631.206 4286.27 635.66 4288.36 640.699C4290.45 645.738 4291.52 651.388 4291.57 657.648C4291.52 667.523 4289.02 675.998 4284.09 683.073C4279.15 690.148 4272.05 695.569 4262.78 699.335C4253.57 703.102 4242.45 704.985 4229.42 704.985C4216.34 704.985 4204.94 703.025 4195.22 699.106C4185.49 695.187 4177.93 689.232 4172.54 681.24C4167.14 673.249 4164.37 663.146 4164.22 650.93H4200.41C4200.71 655.969 4202.06 660.168 4204.45 663.527C4206.85 666.887 4210.13 669.432 4214.3 671.162C4218.53 672.893 4223.41 673.758 4228.96 673.758C4234.05 673.758 4238.38 673.071 4241.94 671.697C4245.55 670.322 4248.33 668.414 4250.26 665.971C4252.2 663.527 4253.19 660.728 4253.24 657.572C4253.19 654.62 4252.27 652.1 4250.49 650.013C4248.71 647.876 4245.96 646.043 4242.25 644.516C4238.58 642.938 4233.9 641.488 4228.2 640.164L4211.86 636.347C4198.32 633.242 4187.66 628.228 4179.87 621.306C4172.08 614.333 4168.21 604.916 4168.26 593.057C4168.21 583.386 4170.81 574.911 4176.05 567.632C4181.29 560.354 4188.55 554.679 4197.81 550.607C4207.07 546.535 4217.64 544.499 4229.5 544.499C4241.61 544.499 4252.12 546.56 4261.03 550.683C4269.99 554.755 4276.93 560.481 4281.87 567.862C4286.81 575.242 4289.33 583.793 4289.43 593.515H4253.24Z" fill="black"/>
<path d="M1286.32 315.436L1732.55 421.987L1373.5 134.686H1373.41L926.392 3.11108L1286.32 315.436Z" fill="url(#paint0_linear_585_489)"/>
<path d="M1699.75 614.02C1699.75 608.191 1696.04 603.236 1690.84 601.445V428.232L1681.93 426.109V601.445C1676.73 603.236 1673.02 608.191 1673.02 614.02C1673.02 618.559 1675.31 622.639 1678.77 625.012L1667.48 636.296H1705.24L1693.96 625.012C1697.46 622.597 1699.71 618.559 1699.71 614.02H1699.75ZM1685.3 618.475L1686.38 617.393L1687.47 618.475H1685.34H1685.3Z" fill="url(#paint1_linear_585_489)"/>
<path d="M1278.79 329.509L1044.7 126.609L975.473 299.822C1184.5 279.544 1365.04 389.884 1440.85 548.94C1456.3 581.376 1454.84 571.591 1460.96 607.358L1555.29 395.797L1278.83 329.551L1278.79 329.509Z" fill="url(#paint2_linear_585_489)"/>
<path d="M953.242 1056.55C904.244 1046.14 860.907 1022.07 823.274 984.43C811.868 973.021 801.71 961.071 792.801 948.663C785.558 938.503 779.147 928.052 773.568 917.185C760.039 974.894 735.727 1018.78 700.883 1048.22L700.466 1048.59C689.06 1058.63 675.239 1066.54 659.378 1072.16C652.592 1074.58 645.89 1076.66 639.271 1078.32C645.182 1085.94 651.385 1093.48 657.837 1100.81C665.372 1109.43 673.282 1117.88 681.566 1126.16C719.325 1163.93 760.372 1193.91 804.666 1216.06C814.407 1220.97 824.315 1225.47 834.431 1229.55C852.082 1218.6 868.859 1205.9 884.761 1191.62C918.648 1160.43 946.873 1124.58 968.562 1084.94C972.85 1077.16 976.888 1069.16 980.718 1060.92C971.351 1059.92 962.193 1058.5 953.201 1056.55H953.242Z" fill="url(#paint3_linear_585_489)"/>
<path d="M662.709 1144.98C697.345 1179.63 734.812 1208.15 774.901 1230.34C747.883 1241.75 719.034 1249.91 688.436 1254.83C654.216 1260.36 615.667 1263.11 572.705 1263.11H325.841C291.413 1263.11 265.436 1257.95 248.035 1247.54C230.592 1237.13 219.227 1222.43 213.898 1203.53C208.57 1184.58 205.905 1160.06 205.905 1129.83V808.51H395.362V1112.59H538.86C570.291 1112.59 594.977 1111.76 612.836 1110.05C618.082 1109.55 623.41 1108.84 628.739 1107.89C639.313 1120.59 650.595 1132.95 662.626 1144.98H662.709Z" fill="url(#paint4_linear_585_489)"/>
<path d="M662.709 1144.98C697.345 1179.63 734.812 1208.15 774.901 1230.34C747.883 1241.75 719.034 1249.91 688.436 1254.83C654.216 1260.36 615.667 1263.11 572.705 1263.11H325.841C291.413 1263.11 265.436 1257.95 248.035 1247.54C230.592 1237.13 219.227 1222.43 213.898 1203.53C208.57 1184.58 205.905 1160.06 205.905 1129.83V808.51H395.362V1112.59H538.86C570.291 1112.59 594.977 1111.76 612.836 1110.05C618.082 1109.55 623.41 1108.84 628.739 1107.89C639.313 1120.59 650.595 1132.95 662.626 1144.98H662.709Z" fill="url(#paint5_linear_585_489)"/>
<path d="M953.242 1056.55C950.661 1061.83 947.997 1067 945.166 1072.08C924.768 1109.26 898.624 1142.57 866.736 1171.92C847.461 1189.25 826.771 1203.94 804.749 1215.98C760.413 1193.83 719.408 1163.85 681.65 1126.08C673.366 1117.8 665.456 1109.34 657.921 1100.72C661.376 1099.64 664.873 1098.52 668.37 1097.27C687.52 1090.48 704.088 1080.9 718.118 1068.58C752.212 1039.81 777.107 999.794 792.801 948.663C801.71 961.113 811.868 973.021 823.274 984.43C860.908 1022.07 904.244 1046.14 953.242 1056.55Z" fill="url(#paint6_linear_585_489)"/>
<path d="M953.242 1056.55C950.661 1061.83 947.997 1067 945.166 1072.08C924.768 1109.26 898.624 1142.57 866.736 1171.92C847.461 1189.25 826.771 1203.94 804.749 1215.98C760.413 1193.83 719.408 1163.85 681.65 1126.08C673.366 1117.8 665.456 1109.34 657.921 1100.72C661.376 1099.64 664.873 1098.52 668.37 1097.27C687.52 1090.48 704.088 1080.9 718.118 1068.58C752.212 1039.81 777.107 999.794 792.801 948.663C801.71 961.113 811.868 973.021 823.274 984.43C860.908 1022.07 904.244 1046.14 953.242 1056.55Z" fill="url(#paint7_linear_585_489)"/>
<path d="M1005.15 792.979C1005.15 849.107 1000.24 900.405 990.501 946.706C984.09 976.977 975.431 1005.29 964.524 1031.61C918.107 1022.94 877.809 1001.08 842.174 965.485C825.855 949.163 812.451 931.841 801.877 913.396C809.412 877.462 813.2 836.866 813.2 791.647C813.2 746.428 809.994 708.122 803.5 674.437C801.086 661.904 798.255 650.12 794.966 639.045C788.722 618.142 780.895 599.947 771.445 584.333C743.595 538.406 709.25 509.176 668.412 496.602C664.124 495.269 659.711 494.062 655.257 492.855C645.848 490.398 636.065 488.274 625.824 486.442C620.454 485.443 614.959 484.569 609.339 483.777C609.63 452.674 611.004 429.44 609.63 400.377C608.548 375.603 609.63 348.08 609.714 328.802C656.714 330.842 698.219 336.463 734.062 345.748C748.299 349.454 762.162 354.159 775.608 359.822C785.641 364.152 795.466 368.941 805.041 374.395C823.982 385.013 841.966 397.754 859.076 412.743C898.166 446.22 929.389 486.65 952.785 534.118C956.781 542.237 960.528 550.523 964.066 559.017C991.459 624.805 1005.15 702.792 1005.15 792.938V792.979Z" fill="url(#paint8_linear_585_489)"/>
<path d="M1005.15 792.979C1005.15 849.107 1000.24 900.405 990.501 946.706C984.09 976.977 975.431 1005.29 964.524 1031.61C918.107 1022.94 877.809 1001.08 842.174 965.485C825.855 949.163 812.451 931.841 801.877 913.396C809.412 877.462 813.2 836.866 813.2 791.647C813.2 746.428 809.994 708.122 803.5 674.437C801.086 661.904 798.255 650.12 794.966 639.045C788.722 618.142 780.895 599.947 771.445 584.333C743.595 538.406 709.25 509.176 668.412 496.602C664.124 495.269 659.711 494.062 655.257 492.855C645.848 490.398 636.065 488.274 625.824 486.442C620.454 485.443 614.959 484.569 609.339 483.777C609.63 452.674 611.004 429.44 609.63 400.377C608.548 375.603 609.63 348.08 609.714 328.802C656.714 330.842 698.219 336.463 734.062 345.748C748.299 349.454 762.162 354.159 775.608 359.822C785.641 364.152 795.466 368.941 805.041 374.395C823.982 385.013 841.966 397.754 859.076 412.743C898.166 446.22 929.389 486.65 952.785 534.118C956.781 542.237 960.528 550.523 964.066 559.017C991.459 624.805 1005.15 702.792 1005.15 792.938V792.979Z" fill="url(#paint9_linear_585_489)"/>
<path d="M543.356 232.993H348.07V400.419H543.356V232.993Z" fill="url(#paint10_linear_585_489)"/>
<path d="M480.578 546.9H285.293V714.326H480.578V546.9Z" fill="url(#paint11_linear_585_489)"/>
<path d="M480.578 546.9H285.293V714.326H480.578V546.9Z" fill="url(#paint12_linear_585_489)"/>
<path d="M205.114 641.085H107.45V724.777H205.114V641.085Z" fill="url(#paint13_linear_585_489)"/>
<path d="M205.114 641.085H107.45V724.777H205.114V641.085Z" fill="url(#paint14_linear_585_489)"/>
<path d="M163.276 253.937H65.6123V337.629H163.276V253.937Z" fill="url(#paint15_linear_585_489)"/>
<path d="M163.276 253.937H65.6123V337.629H163.276V253.937Z" fill="url(#paint16_linear_585_489)"/>
<path d="M166.731 473.659H117.899V515.505H166.731V473.659Z" fill="url(#paint17_linear_585_489)"/>
<path d="M166.731 473.659H117.899V515.505H166.731V473.659Z" fill="url(#paint18_linear_585_489)"/>
<path d="M83.0554 410.87H34.2236V452.716H83.0554V410.87Z" fill="url(#paint19_linear_585_489)"/>
<path d="M83.0554 410.87H34.2236V452.716H83.0554V410.87Z" fill="url(#paint20_linear_585_489)"/>
<path d="M250.449 149.301H201.617V191.147H250.449V149.301Z" fill="url(#paint21_linear_585_489)"/>
<path d="M250.449 149.301H201.617V191.147H250.449V149.301Z" fill="url(#paint22_linear_585_489)"/>
<path d="M259.149 337.629H222.515V369.024H259.149V337.629Z" fill="url(#paint23_linear_585_489)"/>
<path d="M259.149 337.629H222.515V369.024H259.149V337.629Z" fill="url(#paint24_linear_585_489)"/>
<path d="M1277.62 828.705C1270.96 888.413 1245.57 940.294 1201.44 984.43C1149.32 1036.56 1086.29 1062.63 1012.36 1062.63C1001.57 1062.63 991.084 1062.08 980.76 1060.92C971.393 1059.92 962.235 1058.5 953.243 1056.55C904.244 1046.14 860.908 1022.07 823.275 984.43C811.868 973.021 801.71 961.071 792.802 948.663C785.558 938.503 779.147 928.052 773.569 917.185C754.585 880.502 745.094 839.947 745.094 795.353C745.094 750.759 755.168 707.705 775.275 670.19C768.989 641.335 760.081 617.31 748.508 598.281C723.946 557.768 695.138 532.91 660.502 522.251C653.009 519.919 645.016 517.837 636.565 515.963C575.286 596.366 544.646 689.51 544.646 795.353C544.646 901.196 576.202 997.088 639.313 1078.28C645.224 1085.9 651.427 1093.44 657.879 1100.77C665.414 1109.38 673.324 1117.84 681.608 1126.12C719.367 1163.89 760.414 1193.87 804.708 1216.02C814.449 1220.93 824.357 1225.43 834.473 1229.51C889.091 1251.91 948.414 1263.11 1012.32 1263.11C1141.49 1263.11 1251.73 1217.43 1343.06 1126.12C1426.37 1042.81 1471.58 943.666 1478.69 828.746H1277.58L1277.62 828.705ZM859.118 412.785C842.008 397.754 824.024 385.013 805.082 374.437C760.663 396.588 719.533 426.65 681.65 464.499C672.367 473.784 663.583 483.236 655.257 492.938C659.711 494.145 664.124 495.353 668.412 496.685C709.251 509.26 743.595 538.489 771.445 584.416C780.895 599.988 788.722 618.226 794.966 639.128C803.334 627.678 812.826 616.727 823.358 606.192C860.866 568.677 904.078 544.61 952.868 534.159C929.472 486.692 898.25 446.262 859.159 412.785H859.118ZM1343.11 464.499C1251.81 373.188 1141.53 327.511 1012.36 327.511C948.497 327.511 889.216 338.712 834.598 361.071C849.168 370.356 863.239 380.891 876.686 392.674C920.355 430.065 954.908 475.866 980.177 529.746C990.626 528.58 1001.41 527.997 1012.4 527.997C1086.33 527.997 1149.36 554.062 1201.48 606.192C1245.57 650.287 1270.96 702.209 1277.66 761.918H1478.78C1471.66 646.956 1426.45 547.858 1343.15 464.541L1343.11 464.499Z" fill="url(#paint25_linear_585_489)"/>
<path d="M1343.11 464.499C1251.81 373.188 1141.53 327.511 1012.36 327.511C948.497 327.511 889.216 338.712 834.598 361.071C849.168 370.356 863.239 380.891 876.686 392.674C920.355 430.065 954.908 475.866 980.177 529.746C990.626 528.58 1001.41 527.997 1012.4 527.997C1086.33 527.997 1149.36 554.062 1201.48 606.192C1245.57 650.287 1270.96 702.209 1277.66 761.918H1478.78C1471.66 646.956 1426.45 547.858 1343.15 464.541L1343.11 464.499ZM859.118 412.785C842.008 397.754 824.024 385.013 805.082 374.437C760.663 396.588 719.533 426.65 681.65 464.499C672.367 473.784 663.583 483.236 655.257 492.938C659.711 494.145 664.124 495.353 668.412 496.685C709.251 509.26 743.595 538.489 771.445 584.416C780.895 599.988 788.722 618.226 794.966 639.128C803.334 627.678 812.826 616.727 823.358 606.192C860.866 568.677 904.078 544.61 952.868 534.159C929.472 486.692 898.25 446.262 859.159 412.785H859.118ZM1277.62 828.705C1270.96 888.413 1245.57 940.294 1201.44 984.43C1149.32 1036.56 1086.29 1062.63 1012.36 1062.63C1001.57 1062.63 991.084 1062.08 980.76 1060.92C971.393 1059.92 962.235 1058.5 953.243 1056.55C904.244 1046.14 860.908 1022.07 823.275 984.43C811.868 973.021 801.71 961.071 792.802 948.663C785.558 938.503 779.147 928.052 773.569 917.185C754.585 880.502 745.094 839.947 745.094 795.353C745.094 750.759 755.168 707.705 775.275 670.19C768.989 641.335 760.081 617.31 748.508 598.281C723.946 557.768 695.138 532.91 660.502 522.251C653.009 519.919 645.016 517.837 636.565 515.963C575.286 596.366 544.646 689.51 544.646 795.353C544.646 901.196 576.202 997.088 639.313 1078.28C645.224 1085.9 651.427 1093.44 657.879 1100.77C665.414 1109.38 673.324 1117.84 681.608 1126.12C719.367 1163.89 760.414 1193.87 804.708 1216.02C814.449 1220.93 824.357 1225.43 834.473 1229.51C889.091 1251.91 948.414 1263.11 1012.32 1263.11C1141.49 1263.11 1251.73 1217.43 1343.06 1126.12C1426.37 1042.81 1471.58 943.666 1478.69 828.746H1277.58L1277.62 828.705Z" fill="url(#paint26_linear_585_489)"/>
<path d="M2648.27 975V881.909H2704.45V891.909H2659.55V923.364H2701.55V933.364H2659.55V965H2705.18V975H2648.27ZM2734.05 881.909V975H2723.32V881.909H2734.05ZM2782.97 976.455C2776.24 976.455 2770.44 974.97 2765.56 972C2760.71 969 2756.97 964.818 2754.33 959.455C2751.72 954.061 2750.42 947.788 2750.42 940.636C2750.42 933.485 2751.72 927.182 2754.33 921.727C2756.97 916.242 2760.63 911.97 2765.33 908.909C2770.06 905.818 2775.57 904.273 2781.88 904.273C2785.51 904.273 2789.1 904.879 2792.65 906.091C2796.19 907.303 2799.42 909.273 2802.33 912C2805.24 914.697 2807.56 918.273 2809.28 922.727C2811.01 927.182 2811.88 932.667 2811.88 939.182V943.727H2758.06V934.455H2800.97C2800.97 930.515 2800.18 927 2798.6 923.909C2797.06 920.818 2794.84 918.379 2791.97 916.591C2789.12 914.803 2785.75 913.909 2781.88 913.909C2777.6 913.909 2773.91 914.97 2770.78 917.091C2767.69 919.182 2765.31 921.909 2763.65 925.273C2761.98 928.636 2761.15 932.242 2761.15 936.091V942.273C2761.15 947.545 2762.06 952.015 2763.88 955.682C2765.72 959.318 2768.28 962.091 2771.56 964C2774.83 965.879 2778.63 966.818 2782.97 966.818C2785.78 966.818 2788.33 966.424 2790.6 965.636C2792.91 964.818 2794.89 963.606 2796.56 962C2798.22 960.364 2799.51 958.333 2800.42 955.909L2810.78 958.818C2809.69 962.333 2807.86 965.424 2805.28 968.091C2802.71 970.727 2799.53 972.788 2795.74 974.273C2791.95 975.727 2787.69 976.455 2782.97 976.455ZM2883.16 905.182L2857.34 975H2846.43L2820.61 905.182H2832.25L2851.52 960.818H2852.25L2871.52 905.182H2883.16ZM2915.74 976.636C2911.31 976.636 2907.3 975.803 2903.69 974.136C2900.09 972.439 2897.22 970 2895.1 966.818C2892.98 963.606 2891.92 959.727 2891.92 955.182C2891.92 951.182 2892.71 947.939 2894.28 945.455C2895.86 942.939 2897.97 940.97 2900.6 939.545C2903.24 938.121 2906.15 937.061 2909.33 936.364C2912.54 935.636 2915.77 935.061 2919.01 934.636C2923.25 934.091 2926.69 933.682 2929.33 933.409C2932 933.106 2933.94 932.606 2935.15 931.909C2936.39 931.212 2937.01 930 2937.01 928.273V927.909C2937.01 923.424 2935.78 919.939 2933.33 917.455C2930.91 914.97 2927.22 913.727 2922.28 913.727C2917.16 913.727 2913.15 914.848 2910.24 917.091C2907.33 919.333 2905.28 921.727 2904.1 924.273L2893.92 920.636C2895.74 916.394 2898.16 913.091 2901.19 910.727C2904.25 908.333 2907.59 906.667 2911.19 905.727C2914.83 904.758 2918.41 904.273 2921.92 904.273C2924.16 904.273 2926.74 904.545 2929.65 905.091C2932.59 905.606 2935.42 906.682 2938.15 908.318C2940.91 909.955 2943.19 912.424 2945.01 915.727C2946.83 919.03 2947.74 923.455 2947.74 929V975H2937.01V965.545H2936.47C2935.74 967.061 2934.53 968.682 2932.83 970.409C2931.13 972.136 2928.88 973.606 2926.06 974.818C2923.24 976.03 2919.8 976.636 2915.74 976.636ZM2917.38 967C2921.62 967 2925.19 966.167 2928.1 964.5C2931.04 962.833 2933.25 960.682 2934.74 958.045C2936.25 955.409 2937.01 952.636 2937.01 949.727V939.909C2936.56 940.455 2935.56 940.955 2934.01 941.409C2932.5 941.833 2930.74 942.212 2928.74 942.545C2926.77 942.848 2924.84 943.121 2922.97 943.364C2921.12 943.576 2919.62 943.758 2918.47 943.909C2915.68 944.273 2913.07 944.864 2910.65 945.682C2908.25 946.47 2906.31 947.667 2904.83 949.273C2903.38 950.848 2902.65 953 2902.65 955.727C2902.65 959.455 2904.03 962.273 2906.78 964.182C2909.57 966.061 2913.1 967 2917.38 967ZM2997.68 905.182V914.273H2961.5V905.182H2997.68ZM2972.05 888.455H2982.77V955C2982.77 958.03 2983.21 960.303 2984.09 961.818C2985 963.303 2986.15 964.303 2987.55 964.818C2988.97 965.303 2990.47 965.545 2992.05 965.545C2993.23 965.545 2994.2 965.485 2994.95 965.364C2995.71 965.212 2996.32 965.091 2996.77 965L2998.95 974.636C2998.23 974.909 2997.21 975.182 2995.91 975.455C2994.61 975.758 2992.95 975.909 2990.95 975.909C2987.92 975.909 2984.95 975.258 2982.05 973.955C2979.17 972.652 2976.77 970.667 2974.86 968C2972.98 965.333 2972.05 961.97 2972.05 957.909V888.455ZM3042.34 976.455C3035.61 976.455 3029.81 974.97 3024.93 972C3020.08 969 3016.34 964.818 3013.7 959.455C3011.1 954.061 3009.8 947.788 3009.8 940.636C3009.8 933.485 3011.1 927.182 3013.7 921.727C3016.34 916.242 3020.01 911.97 3024.7 908.909C3029.43 905.818 3034.95 904.273 3041.25 904.273C3044.89 904.273 3048.48 904.879 3052.02 906.091C3055.57 907.303 3058.8 909.273 3061.7 912C3064.61 914.697 3066.93 918.273 3068.66 922.727C3070.39 927.182 3071.25 932.667 3071.25 939.182V943.727H3017.43V934.455H3060.34C3060.34 930.515 3059.55 927 3057.98 923.909C3056.43 920.818 3054.22 918.379 3051.34 916.591C3048.49 914.803 3045.13 913.909 3041.25 913.909C3036.98 913.909 3033.28 914.97 3030.16 917.091C3027.07 919.182 3024.69 921.909 3023.02 925.273C3021.36 928.636 3020.52 932.242 3020.52 936.091V942.273C3020.52 947.545 3021.43 952.015 3023.25 955.682C3025.1 959.318 3027.66 962.091 3030.93 964C3034.2 965.879 3038.01 966.818 3042.34 966.818C3045.16 966.818 3047.7 966.424 3049.98 965.636C3052.28 964.818 3054.27 963.606 3055.93 962C3057.6 960.364 3058.89 958.333 3059.8 955.909L3070.16 958.818C3069.07 962.333 3067.23 965.424 3064.66 968.091C3062.08 970.727 3058.9 972.788 3055.11 974.273C3051.33 975.727 3047.07 976.455 3042.34 976.455ZM3125.02 975V881.909H3181.2V891.909H3136.3V923.364H3178.3V933.364H3136.3V965H3181.93V975H3125.02ZM3220.61 976.636C3216.19 976.636 3212.17 975.803 3208.57 974.136C3204.96 972.439 3202.1 970 3199.98 966.818C3197.86 963.606 3196.8 959.727 3196.8 955.182C3196.8 951.182 3197.58 947.939 3199.16 945.455C3200.73 942.939 3202.84 940.97 3205.48 939.545C3208.11 938.121 3211.02 937.061 3214.2 936.364C3217.42 935.636 3220.64 935.061 3223.89 934.636C3228.13 934.091 3231.57 933.682 3234.2 933.409C3236.87 933.106 3238.81 932.606 3240.02 931.909C3241.27 931.212 3241.89 930 3241.89 928.273V927.909C3241.89 923.424 3240.66 919.939 3238.2 917.455C3235.78 914.97 3232.1 913.727 3227.16 913.727C3222.04 913.727 3218.02 914.848 3215.11 917.091C3212.2 919.333 3210.16 921.727 3208.98 924.273L3198.8 920.636C3200.61 916.394 3203.04 913.091 3206.07 910.727C3209.13 908.333 3212.46 906.667 3216.07 905.727C3219.7 904.758 3223.28 904.273 3226.8 904.273C3229.04 904.273 3231.61 904.545 3234.52 905.091C3237.46 905.606 3240.3 906.682 3243.02 908.318C3245.78 909.955 3248.07 912.424 3249.89 915.727C3251.7 919.03 3252.61 923.455 3252.61 929V975H3241.89V965.545H3241.34C3240.61 967.061 3239.4 968.682 3237.7 970.409C3236.01 972.136 3233.75 973.606 3230.93 974.818C3228.11 976.03 3224.67 976.636 3220.61 976.636ZM3222.25 967C3226.49 967 3230.07 966.167 3232.98 964.5C3235.92 962.833 3238.13 960.682 3239.61 958.045C3241.13 955.409 3241.89 952.636 3241.89 949.727V939.909C3241.43 940.455 3240.43 940.955 3238.89 941.409C3237.37 941.833 3235.61 942.212 3233.61 942.545C3231.64 942.848 3229.72 943.121 3227.84 943.364C3225.99 943.576 3224.49 943.758 3223.34 943.909C3220.55 944.273 3217.95 944.864 3215.52 945.682C3213.13 946.47 3211.19 947.667 3209.7 949.273C3208.25 950.848 3207.52 953 3207.52 955.727C3207.52 959.455 3208.9 962.273 3211.66 964.182C3214.45 966.061 3217.98 967 3222.25 967ZM3272.19 975V905.182H3282.56V915.727H3283.28C3284.56 912.273 3286.86 909.47 3290.19 907.318C3293.53 905.167 3297.28 904.091 3301.47 904.091C3302.25 904.091 3303.24 904.106 3304.42 904.136C3305.6 904.167 3306.5 904.212 3307.1 904.273V915.182C3306.74 915.091 3305.91 914.955 3304.6 914.773C3303.33 914.561 3301.98 914.455 3300.56 914.455C3297.16 914.455 3294.13 915.167 3291.47 916.591C3288.83 917.985 3286.74 919.924 3285.19 922.409C3283.68 924.864 3282.92 927.667 3282.92 930.818V975H3272.19ZM3330.55 933V975H3319.82V905.182H3330.18V916.091H3331.09C3332.73 912.545 3335.21 909.697 3338.55 907.545C3341.88 905.364 3346.18 904.273 3351.45 904.273C3356.18 904.273 3360.32 905.242 3363.86 907.182C3367.41 909.091 3370.17 912 3372.14 915.909C3374.11 919.788 3375.09 924.697 3375.09 930.636V975H3364.36V931.364C3364.36 925.879 3362.94 921.606 3360.09 918.545C3357.24 915.455 3353.33 913.909 3348.36 913.909C3344.94 913.909 3341.88 914.652 3339.18 916.136C3336.52 917.621 3334.41 919.788 3332.86 922.636C3331.32 925.485 3330.55 928.939 3330.55 933ZM3432.15 975V881.909H3488.33V891.909H3443.42V923.364H3485.42V933.364H3443.42V965H3489.06V975H3432.15ZM3515.19 905.182L3531.92 933.727L3548.65 905.182H3561.01L3538.47 940.091L3561.01 975H3548.65L3531.92 947.909L3515.19 975H3502.83L3525.01 940.091L3502.83 905.182H3515.19ZM3601.81 976.455C3595.26 976.455 3589.63 974.909 3584.9 971.818C3580.17 968.727 3576.53 964.47 3573.99 959.045C3571.44 953.621 3570.17 947.424 3570.17 940.455C3570.17 933.364 3571.47 927.106 3574.08 921.682C3576.72 916.227 3580.38 911.97 3585.08 908.909C3589.81 905.818 3595.32 904.273 3601.62 904.273C3606.53 904.273 3610.96 905.182 3614.9 907C3618.84 908.818 3622.06 911.364 3624.58 914.636C3627.09 917.909 3628.66 921.727 3629.26 926.091H3618.53C3617.72 922.909 3615.9 920.091 3613.08 917.636C3610.29 915.152 3606.53 913.909 3601.81 913.909C3597.63 913.909 3593.96 915 3590.81 917.182C3587.69 919.333 3585.25 922.379 3583.49 926.318C3581.76 930.227 3580.9 934.818 3580.9 940.091C3580.9 945.485 3581.75 950.182 3583.44 954.182C3585.17 958.182 3587.59 961.288 3590.72 963.5C3593.87 965.712 3597.56 966.818 3601.81 966.818C3604.59 966.818 3607.12 966.333 3609.4 965.364C3611.67 964.394 3613.59 963 3615.17 961.182C3616.75 959.364 3617.87 957.182 3618.53 954.636H3629.26C3628.66 958.758 3627.16 962.47 3624.76 965.773C3622.4 969.045 3619.26 971.652 3615.35 973.591C3611.47 975.5 3606.96 976.455 3601.81 976.455ZM3674.22 976.455C3667.49 976.455 3661.69 974.97 3656.81 972C3651.96 969 3648.22 964.818 3645.58 959.455C3642.97 954.061 3641.67 947.788 3641.67 940.636C3641.67 933.485 3642.97 927.182 3645.58 921.727C3648.22 916.242 3651.88 911.97 3656.58 908.909C3661.31 905.818 3666.82 904.273 3673.12 904.273C3676.76 904.273 3680.35 904.879 3683.9 906.091C3687.44 907.303 3690.67 909.273 3693.58 912C3696.49 914.697 3698.81 918.273 3700.53 922.727C3702.26 927.182 3703.12 932.667 3703.12 939.182V943.727H3649.31V934.455H3692.22C3692.22 930.515 3691.43 927 3689.85 923.909C3688.31 920.818 3686.09 918.379 3683.22 916.591C3680.37 914.803 3677 913.909 3673.12 913.909C3668.85 913.909 3665.16 914.97 3662.03 917.091C3658.94 919.182 3656.56 921.909 3654.9 925.273C3653.23 928.636 3652.4 932.242 3652.4 936.091V942.273C3652.4 947.545 3653.31 952.015 3655.12 955.682C3656.97 959.318 3659.53 962.091 3662.81 964C3666.08 965.879 3669.88 966.818 3674.22 966.818C3677.03 966.818 3679.58 966.424 3681.85 965.636C3684.16 964.818 3686.14 963.606 3687.81 962C3689.47 960.364 3690.76 958.333 3691.67 955.909L3702.03 958.818C3700.94 962.333 3699.11 965.424 3696.53 968.091C3693.96 970.727 3690.78 972.788 3686.99 974.273C3683.2 975.727 3678.94 976.455 3674.22 976.455ZM3730.17 881.909V975H3719.44V881.909H3730.17Z" fill="#231F20"/>
</g>
<defs>
<linearGradient id="paint0_linear_585_489" x1="1232.62" y1="309.398" x2="1426.32" y2="115.737" gradientUnits="userSpaceOnUse">
<stop/>
<stop offset="0.48" stop-color="#06395F"/>
<stop offset="0.83" stop-color="#0B61A0"/>
<stop offset="1" stop-color="#0D71BA"/>
</linearGradient>
<linearGradient id="paint1_linear_585_489" x1="1628.02" y1="596.824" x2="1743.69" y2="481.134" gradientUnits="userSpaceOnUse">
<stop/>
<stop offset="0.48" stop-color="#06395F"/>
<stop offset="0.83" stop-color="#0B61A0"/>
<stop offset="1" stop-color="#0D71BA"/>
</linearGradient>
<linearGradient id="paint2_linear_585_489" x1="1147.74" y1="472.077" x2="1389.69" y2="230.166" gradientUnits="userSpaceOnUse">
<stop/>
<stop offset="0.48" stop-color="#06395F"/>
<stop offset="0.83" stop-color="#0B61A0"/>
<stop offset="1" stop-color="#0D71BA"/>
</linearGradient>
<linearGradient id="paint3_linear_585_489" x1="719.699" y1="1164.14" x2="901.864" y2="982.008" gradientUnits="userSpaceOnUse">
<stop/>
<stop offset="0.48" stop-color="#06395F"/>
<stop offset="0.83" stop-color="#0B61A0"/>
<stop offset="1" stop-color="#0D71BA"/>
</linearGradient>
<linearGradient id="paint4_linear_585_489" x1="253.405" y1="1256.49" x2="548.408" y2="961.544" gradientUnits="userSpaceOnUse">
<stop/>
<stop offset="0.48" stop-color="#06395F"/>
<stop offset="0.83" stop-color="#0B61A0"/>
<stop offset="1" stop-color="#0D71BA"/>
</linearGradient>
<linearGradient id="paint5_linear_585_489" x1="253.405" y1="1256.49" x2="548.408" y2="961.544" gradientUnits="userSpaceOnUse">
<stop/>
<stop offset="0.48" stop-color="#06395F"/>
<stop offset="0.83" stop-color="#0B61A0"/>
<stop offset="1" stop-color="#0D71BA"/>
</linearGradient>
<linearGradient id="paint6_linear_585_489" x1="722.947" y1="1167.39" x2="893.537" y2="996.829" gradientUnits="userSpaceOnUse">
<stop/>
<stop offset="0.48" stop-color="#06395F"/>
<stop offset="0.83" stop-color="#0B61A0"/>
<stop offset="1" stop-color="#0D71BA"/>
</linearGradient>
<linearGradient id="paint7_linear_585_489" x1="722.947" y1="1167.39" x2="893.537" y2="996.829" gradientUnits="userSpaceOnUse">
<stop/>
<stop offset="0.48" stop-color="#06395F"/>
<stop offset="0.83" stop-color="#0B61A0"/>
<stop offset="1" stop-color="#0D71BA"/>
</linearGradient>
<linearGradient id="paint8_linear_585_489" x1="672.033" y1="795.353" x2="957.668" y2="509.773" gradientUnits="userSpaceOnUse">
<stop/>
<stop offset="0.48" stop-color="#06395F"/>
<stop offset="0.83" stop-color="#0B61A0"/>
<stop offset="1" stop-color="#0D71BA"/>
</linearGradient>
<linearGradient id="paint9_linear_585_489" x1="672.033" y1="795.353" x2="957.668" y2="509.773" gradientUnits="userSpaceOnUse">
<stop/>
<stop offset="0.48" stop-color="#06395F"/>
<stop offset="0.83" stop-color="#0B61A0"/>
<stop offset="1" stop-color="#0D71BA"/>
</linearGradient>
<linearGradient id="paint10_linear_585_489" x1="355.064" y1="407.414" x2="536.438" y2="226.074" gradientUnits="userSpaceOnUse">
<stop/>
<stop offset="0.48" stop-color="#06395F"/>
<stop offset="0.83" stop-color="#0B61A0"/>
<stop offset="1" stop-color="#0D71BA"/>
</linearGradient>
<linearGradient id="paint11_linear_585_489" x1="292.287" y1="721.321" x2="473.661" y2="539.981" gradientUnits="userSpaceOnUse">
<stop/>
<stop offset="0.48" stop-color="#06395F"/>
<stop offset="0.83" stop-color="#0B61A0"/>
<stop offset="1" stop-color="#0D71BA"/>
</linearGradient>
<linearGradient id="paint12_linear_585_489" x1="292.287" y1="721.321" x2="473.661" y2="539.981" gradientUnits="userSpaceOnUse">
<stop/>
<stop offset="0.48" stop-color="#06395F"/>
<stop offset="0.83" stop-color="#0B61A0"/>
<stop offset="1" stop-color="#0D71BA"/>
</linearGradient>
<linearGradient id="paint13_linear_585_489" x1="110.947" y1="728.274" x2="201.634" y2="637.605" gradientUnits="userSpaceOnUse">
<stop/>
<stop offset="0.48" stop-color="#06395F"/>
<stop offset="0.83" stop-color="#0B61A0"/>
<stop offset="1" stop-color="#0D71BA"/>
</linearGradient>
<linearGradient id="paint14_linear_585_489" x1="110.947" y1="728.274" x2="201.634" y2="637.605" gradientUnits="userSpaceOnUse">
<stop/>
<stop offset="0.48" stop-color="#06395F"/>
<stop offset="0.83" stop-color="#0B61A0"/>
<stop offset="1" stop-color="#0D71BA"/>
</linearGradient>
<linearGradient id="paint15_linear_585_489" x1="69.1092" y1="341.126" x2="159.796" y2="250.457" gradientUnits="userSpaceOnUse">
<stop/>
<stop offset="0.48" stop-color="#06395F"/>
<stop offset="0.83" stop-color="#0B61A0"/>
<stop offset="1" stop-color="#0D71BA"/>
</linearGradient>
<linearGradient id="paint16_linear_585_489" x1="69.1092" y1="341.126" x2="159.796" y2="250.457" gradientUnits="userSpaceOnUse">
<stop/>
<stop offset="0.48" stop-color="#06395F"/>
<stop offset="0.83" stop-color="#0B61A0"/>
<stop offset="1" stop-color="#0D71BA"/>
</linearGradient>
<linearGradient id="paint17_linear_585_489" x1="119.648" y1="517.254" x2="164.991" y2="471.919" gradientUnits="userSpaceOnUse">
<stop/>
<stop offset="0.48" stop-color="#06395F"/>
<stop offset="0.83" stop-color="#0B61A0"/>
<stop offset="1" stop-color="#0D71BA"/>
</linearGradient>
<linearGradient id="paint18_linear_585_489" x1="119.648" y1="517.254" x2="164.991" y2="471.919" gradientUnits="userSpaceOnUse">
<stop/>
<stop offset="0.48" stop-color="#06395F"/>
<stop offset="0.83" stop-color="#0B61A0"/>
<stop offset="1" stop-color="#0D71BA"/>
</linearGradient>
<linearGradient id="paint19_linear_585_489" x1="35.9721" y1="454.506" x2="81.3156" y2="409.171" gradientUnits="userSpaceOnUse">
<stop/>
<stop offset="0.48" stop-color="#06395F"/>
<stop offset="0.83" stop-color="#0B61A0"/>
<stop offset="1" stop-color="#0D71BA"/>
</linearGradient>
<linearGradient id="paint20_linear_585_489" x1="35.9721" y1="454.506" x2="81.3156" y2="409.171" gradientUnits="userSpaceOnUse">
<stop/>
<stop offset="0.48" stop-color="#06395F"/>
<stop offset="0.83" stop-color="#0B61A0"/>
<stop offset="1" stop-color="#0D71BA"/>
</linearGradient>
<linearGradient id="paint21_linear_585_489" x1="203.366" y1="192.896" x2="248.709" y2="147.561" gradientUnits="userSpaceOnUse">
<stop/>
<stop offset="0.48" stop-color="#06395F"/>
<stop offset="0.83" stop-color="#0B61A0"/>
<stop offset="1" stop-color="#0D71BA"/>
</linearGradient>
<linearGradient id="paint22_linear_585_489" x1="203.366" y1="192.896" x2="248.709" y2="147.561" gradientUnits="userSpaceOnUse">
<stop/>
<stop offset="0.48" stop-color="#06395F"/>
<stop offset="0.83" stop-color="#0B61A0"/>
<stop offset="1" stop-color="#0D71BA"/>
</linearGradient>
<linearGradient id="paint23_linear_585_489" x1="223.847" y1="370.356" x2="257.865" y2="336.345" gradientUnits="userSpaceOnUse">
<stop/>
<stop offset="0.48" stop-color="#06395F"/>
<stop offset="0.83" stop-color="#0B61A0"/>
<stop offset="1" stop-color="#0D71BA"/>
</linearGradient>
<linearGradient id="paint24_linear_585_489" x1="223.847" y1="370.356" x2="257.865" y2="336.345" gradientUnits="userSpaceOnUse">
<stop/>
<stop offset="0.48" stop-color="#06395F"/>
<stop offset="0.83" stop-color="#0B61A0"/>
<stop offset="1" stop-color="#0D71BA"/>
</linearGradient>
<linearGradient id="paint25_linear_585_489" x1="681.608" y1="1126.08" x2="1343.23" y2="464.626" gradientUnits="userSpaceOnUse">
<stop/>
<stop offset="0.48" stop-color="#06395F"/>
<stop offset="0.83" stop-color="#0B61A0"/>
<stop offset="1" stop-color="#0D71BA"/>
</linearGradient>
<linearGradient id="paint26_linear_585_489" x1="681.608" y1="1126.08" x2="1343.23" y2="464.626" gradientUnits="userSpaceOnUse">
<stop/>
<stop offset="0.48" stop-color="#06395F"/>
<stop offset="0.83" stop-color="#0B61A0"/>
<stop offset="1" stop-color="#0D71BA"/>
</linearGradient>
<clipPath id="clip0_585_489">
<rect width="4551" height="1260" fill="white"/>
</clipPath>
</defs>
</svg>
