<svg width="21" height="21" viewBox="0 0 21 21" fill="none" xmlns="http://www.w3.org/2000/svg">
<path d="M4.375 7.875V18.375H0.875V7.875H4.375ZM7.875 18.375C7.41087 18.375 6.96575 18.1906 6.63756 17.8624C6.30937 17.5342 6.125 17.0891 6.125 16.625V7.875C6.125 7.39375 6.3175 6.95625 6.64125 6.64125L12.3988 0.875L13.3263 1.8025C13.5625 2.03875 13.7113 2.3625 13.7113 2.72125L13.685 3.00125L12.8537 7H18.375C18.8391 7 19.2842 7.18437 19.6124 7.51256C19.9406 7.84075 20.125 8.28587 20.125 8.75V10.5C20.125 10.7275 20.0813 10.9375 20.0025 11.1388L17.36 17.3075C17.0975 17.9375 16.4762 18.375 15.75 18.375H7.875ZM7.875 16.625H15.7763L18.375 10.5V8.75H10.6838L11.6725 4.095L7.875 7.90125V16.625Z" fill="black"/>
</svg>
