<svg width="75" height="75" viewBox="0 0 75 75" fill="none" xmlns="http://www.w3.org/2000/svg">
<circle cx="37.5" cy="37.5" r="37.5" fill="black"/>
<path d="M30.008 28C35.216 28 40.016 31.84 40.016 37.312C40.016 43.168 35.816 47.296 30.008 47.296C24.2 47.296 20 43.168 20 37.312C20 31.84 24.8 28 30.008 28ZM30.008 32.56C27.2 32.56 24.896 34.84 24.896 37.336C24.896 40.456 27.2 42.736 30.008 42.736C32.816 42.736 35.12 40.456 35.12 37.336C35.12 34.84 32.816 32.56 30.008 32.56Z" fill="white"/>
<path d="M55.1292 29.032V34.672C54.1693 33.376 52.6092 32.68 51.0012 32.68C48.1213 32.68 46.1772 34.888 46.1772 37.696C46.1772 40.552 48.1453 42.616 51.0732 42.616C52.6092 42.616 54.1452 41.872 55.1292 40.696V46.336C53.5692 46.816 52.4412 47.176 50.9772 47.176C48.4572 47.176 46.0572 46.216 44.1852 44.512C42.1932 42.712 41.2812 40.36 41.2812 37.672C41.2812 35.2 42.2172 32.824 43.9452 31.048C45.7212 29.224 48.2892 28.12 50.8333 28.12C52.3452 28.12 53.7372 28.456 55.1292 29.032Z" fill="white"/>
</svg>
