<svg width="105" height="21" viewBox="0 0 105 21" fill="none" xmlns="http://www.w3.org/2000/svg">
<g id="Starts">
<path id="Star 1" d="M10.5 0L12.8574 7.25532H20.4861L14.3143 11.7394L16.6717 18.9947L10.5 14.5106L4.32825 18.9947L6.68565 11.7394L0.513906 7.25532H8.1426L10.5 0Z" fill="#F9A825"/>
<path id="Star 2" d="M31.5 0L33.8574 7.25532H41.4861L35.3143 11.7394L37.6717 18.9947L31.5 14.5106L25.3283 18.9947L27.6857 11.7394L21.5139 7.25532H29.1426L31.5 0Z" fill="#F9A825"/>
<path id="Star 3" d="M52.5 0L54.8574 7.25532H62.4861L56.3143 11.7394L58.6717 18.9947L52.5 14.5106L46.3283 18.9947L48.6857 11.7394L42.5139 7.25532H50.1426L52.5 0Z" fill="#F9A825"/>
<path id="Star 4" d="M73.5 0L75.8574 7.25532H83.4861L77.3143 11.7394L79.6717 18.9947L73.5 14.5106L67.3283 18.9947L69.6857 11.7394L63.5139 7.25532H71.1426L73.5 0Z" fill="#F9A825"/>
<path id="Star 5" d="M94.5 1.61804L96.3819 7.40983L96.4941 7.75532H96.8574H102.947L98.0205 11.3348L97.7266 11.5484L97.8388 11.8939L99.7207 17.6857L94.7939 14.1061L94.5 13.8926L94.2061 14.1061L89.2793 17.6857L91.1612 11.8939L91.2734 11.5484L90.9795 11.3348L86.0527 7.75532H92.1426H92.5059L92.6181 7.40983L94.5 1.61804Z" fill="#D9D9D9" stroke="#F9A825"/>
</g>
</svg>
